<svg width="236" height="137" viewBox="0 0 236 137" fill="none" xmlns="http://www.w3.org/2000/svg">
<g clip-path="url(#clip0_1_482)">
<path d="M235.386 88.6049V96.8734L172.249 96.8595C137.829 98.0447 105.745 111.821 71.9804 116.903C47.5441 120.585 22.8709 119.72 0.330969 108.83C-0.240721 108.363 0.121814 107.017 0.0381522 106.313C0.365828 105.993 7.56772 108.733 8.68321 109.053C64.0743 125.019 117.374 92.1187 171.67 88.5979C183.718 87.817 195.716 88.2144 207.729 88.312C216.959 88.3887 226.19 88.1517 235.386 88.5979V88.6049Z" fill="#6AAF39"/>
<path d="M63.528 20.4483C64.9781 21.5987 64.3925 26.1443 64.1066 27.8176C63.2491 32.8303 61.6107 38.833 60.3279 43.8318C59.4634 47.1992 56.9814 53.2089 56.8002 56.2696C56.6328 59.1141 58.327 59.5045 58.7592 61.115C58.9266 61.7424 54.8202 64.573 54.0463 65.0192C51.146 66.6994 48.7756 67.6406 45.464 66.4066C43.965 65.8488 39.7192 62.6279 39.1893 62.6C38.6107 62.5721 32.5243 66.6367 30.8929 67.292C15.4852 73.483 12.299 57.5733 16.2939 46.2092C19.8913 35.9746 35.6686 17.2901 47.8693 22.0588C48.5664 22.3307 49.7307 23.2998 50.149 23.3138C50.644 23.3277 53.0842 21.5917 53.9417 21.2083C56.1657 20.2113 58.5989 19.5629 61.0599 19.8139C61.4364 19.8488 63.3537 20.3089 63.528 20.4483ZM45.1851 29.5954C42.5428 30.1949 38.7641 36.4696 37.6207 38.8749C35.801 42.7024 33.1587 52.7418 34.9714 56.5136C36.6446 59.9995 38.4364 58.2496 39.6565 55.6839C42.9053 48.8236 44.3624 39.6069 47.4998 32.5096C48.0157 30.432 47.5555 29.0655 45.1851 29.6023V29.5954Z" fill="#00ADD9"/>
<path d="M105.847 61.6867C102.814 63.6806 99.7675 66.6436 95.9469 67.0131C92.9909 67.299 90.3904 65.2562 88.0479 63.7434C87.3925 63.3181 87.1276 62.5581 86.2561 62.607C85.1546 62.6627 82.0591 65.2981 80.7623 66.0092C72.4937 70.5479 64.1694 69.9413 62.2173 59.4208C60.9205 52.4351 62.8378 46.0837 66.3237 40.074C70.932 32.1331 85.8796 16.6905 95.933 22.4911C96.3374 22.7281 96.9369 23.5369 97.16 23.5578C97.418 23.5787 100.757 21.3756 101.643 21.0131C104.027 20.03 107.541 19.1516 110.023 20.2322C112.31 21.2292 111.724 24.9243 111.417 26.9391C110.546 32.6002 108.51 39.6627 107.046 45.3168C106.272 48.3008 103.937 53.8991 103.839 56.6112C103.762 58.7655 105.561 59.867 105.847 61.6936V61.6867ZM92.4959 29.6023C88.3895 30.4808 83.9066 40.4714 82.9027 44.2362C82.08 47.3456 80.6368 54.4639 82.575 57.0992C84.7572 60.0692 86.1306 57.4617 87.1067 55.2238C89.4353 49.8694 93.0885 38.7842 94.5038 33.0743C94.9988 31.0664 95.5147 28.9609 92.5029 29.6023H92.4959Z" fill="#00ADD9"/>
<path d="M180.02 27.8316C179.358 27.1692 178.193 27.734 178.619 25.5518C178.884 24.2132 184.189 20.9295 185.639 20.4554C187.968 19.6885 194.926 19.2841 197.017 20.3717C197.708 20.7273 197.484 22.2402 197.533 22.8885C197.561 23.2023 197.366 23.8785 197.973 23.6206C198.684 23.3208 200.796 21.3617 201.877 20.7273C213.429 13.9507 223.615 20.6645 220.512 34.0225C218.323 43.4415 213.157 52.6303 209.727 61.6449C209.497 63.36 209.462 64.3221 210.675 65.577C211.226 66.1487 212.523 66.5182 212.279 67.4246C212.174 67.815 209.567 70.8547 209.065 71.3288C207.301 72.995 202.358 76.1463 200.015 76.467C196.411 76.962 190.819 76.2439 190.722 71.6076C190.631 67.5291 198.063 58.6889 200.343 54.6452C203.445 49.1514 212.704 32.8025 203.438 29.0935C197.115 26.5627 195.01 36.0513 193.601 40.5342C190.917 49.0956 189.174 69.2721 176.046 66.2045C174.038 65.7374 171.354 63.36 170.741 61.4427C170.448 60.5224 172.379 58.7307 172.992 57.7546C175.949 53.0417 179.734 36.644 180.341 30.8364C180.417 30.0974 180.515 28.3475 180.006 27.8385L180.02 27.8316Z" fill="#00ADD9"/>
<path d="M138.635 3.31855C142.623 2.85144 145.956 5.68897 148.291 8.58925C148.947 9.39798 152.175 14.2922 152.265 14.9894C152.412 16.084 149.672 17.4225 149.372 19.3677C148.724 23.5787 149.504 30.1601 149.372 34.7196C149.219 39.6766 149.079 46.6693 147.294 51.2568C143.021 62.2444 128.233 70.6454 116.674 66.7691C100.918 61.4845 113.753 41.4196 115.322 31.1292C115.991 26.7509 114.45 25.3216 119.191 22.8815C123.005 20.9154 129.969 19.5559 133.797 21.9054C136.76 23.7251 134.85 30.9688 133.915 33.7506C132.681 37.3899 127.062 46.8088 128.589 50.1483C129.691 52.5466 134.731 50.3993 136.328 49.1583C145.049 42.3817 143.564 32.3911 139.66 23.4392C138.05 19.7511 133.504 13.2185 133.42 9.5653C133.351 6.28158 135.345 3.72292 138.649 3.33249L138.635 3.31855Z" fill="#00ADD9"/>
<path d="M168.266 60.2505C168.391 60.3829 168.307 60.6548 168.077 60.864C166.641 62.1677 161.9 64.0431 159.941 64.4823C150.85 66.5181 148.912 60.9407 150.676 53.1601C151.945 47.5687 154.441 41.6496 155.995 36.0303C156.427 34.4756 158.254 28.4868 157.878 27.3713C157.501 26.2558 154.643 26.1652 153.632 26.2907L153.485 25.7051C157.327 23.2649 161.273 19.0958 166.049 18.6147C177.524 17.4644 173.536 27.6014 171.905 34.5105C171.04 38.1777 170.057 41.8727 168.998 45.4911C168.05 48.7469 163.943 56.9876 166.92 59.6788C167.297 60.0134 167.764 60.2017 168.259 60.2644L168.266 60.2505Z" fill="#00ADD9"/>
<path d="M174.373 1.87541C180.355 7.91997 168.768 14.9267 164.473 8.36617C160.652 2.53076 169.541 -3.00487 174.373 1.87541Z" fill="#00ADD9"/>
</g>
<path d="M229.852 136.658V117.068H233.816V136.658H229.852Z" fill="#00ADD9"/>
<path d="M220.146 134.024C221.87 134.024 223.295 132.897 223.295 131.322V130.263L220.227 130.453C218.747 130.562 217.906 131.227 217.906 132.259C217.906 133.345 218.802 134.024 220.146 134.024ZM218.842 136.888C216.073 136.888 213.969 135.096 213.969 132.476C213.969 129.829 216.005 128.295 219.63 128.078L223.295 127.86V126.896C223.295 125.539 222.345 124.751 220.852 124.751C219.372 124.751 218.435 125.485 218.245 126.557H214.62C214.77 123.733 217.173 121.792 221.028 121.792C224.762 121.792 227.192 123.72 227.192 126.652V136.658H223.363V134.431H223.282C222.467 135.979 220.662 136.888 218.842 136.888Z" fill="#00ADD9"/>
<path d="M203.759 127.943L208.701 122.105H213.195L207.642 128.35L213.466 136.658H208.904L204.737 130.739L203.705 131.852V136.658H199.741V117.068H203.705V127.943H203.759Z" fill="#00ADD9"/>
<path d="M188.798 127.943L193.74 122.105H198.234L192.681 128.35L198.505 136.658H193.944L189.776 130.739L188.744 131.852V136.658H184.78V117.068H188.744V127.943H188.798Z" fill="#00ADD9"/>
<path d="M175.073 134.024C176.797 134.024 178.223 132.897 178.223 131.322V130.263L175.154 130.453C173.675 130.562 172.833 131.227 172.833 132.259C172.833 133.345 173.729 134.024 175.073 134.024ZM173.77 136.888C171 136.888 168.896 135.096 168.896 132.476C168.896 129.829 170.932 128.295 174.557 128.078L178.223 127.86V126.896C178.223 125.539 177.272 124.751 175.779 124.751C174.299 124.751 173.362 125.485 173.172 126.557H169.547C169.697 123.733 172.1 121.792 175.955 121.792C179.689 121.792 182.119 123.72 182.119 126.652V136.658H178.29V134.431H178.209C177.394 135.979 175.589 136.888 173.77 136.888Z" fill="#00ADD9"/>
<path d="M145.45 136.658V122.104H149.279V124.738H149.36C149.971 122.986 151.532 121.833 153.514 121.833C155.619 121.833 157.085 122.919 157.573 124.819H157.655C158.307 122.986 160.044 121.833 162.176 121.833C165.027 121.833 166.941 123.787 166.941 126.72V136.658H162.977V127.711C162.977 126.028 162.135 125.104 160.601 125.104C159.094 125.104 158.103 126.204 158.103 127.82V136.658H154.288V127.589C154.288 126.028 153.406 125.104 151.939 125.104C150.432 125.104 149.414 126.245 149.414 127.874V136.658H145.45Z" fill="#00ADD9"/>
<path d="M135.839 134.024C137.563 134.024 138.988 132.897 138.988 131.322V130.263L135.92 130.453C134.44 130.562 133.599 131.227 133.599 132.259C133.599 133.345 134.495 134.024 135.839 134.024ZM134.535 136.888C131.766 136.888 129.662 135.096 129.662 132.476C129.662 129.829 131.698 128.295 135.323 128.078L138.988 127.86V126.896C138.988 125.539 138.038 124.751 136.545 124.751C135.065 124.751 134.128 125.485 133.938 126.557H130.313C130.463 123.733 132.865 121.792 136.721 121.792C140.454 121.792 142.885 123.72 142.885 126.652V136.658H139.056V134.431H138.975C138.16 135.979 136.355 136.888 134.535 136.888Z" fill="#00ADD9"/>
<path d="M114.931 136.658H111.008V117.068H114.429L123.579 129.83H123.688V117.068H127.611V136.658H124.217L115.054 123.829H114.931V136.658Z" fill="#00ADD9"/>
<defs>
<clipPath id="clip0_1_482">
<rect width="235.383" height="118.87" fill="white" transform="translate(0.000732422)"/>
</clipPath>
</defs>
</svg>
