<?xml version="1.0" encoding="UTF-8"?>
<svg version="1.1" xmlns="http://www.w3.org/2000/svg" width="1024" height="1024">
<path d="M0 0 C337.92 0 675.84 0 1024 0 C1024 337.92 1024 675.84 1024 1024 C686.08 1024 348.16 1024 0 1024 C0 686.08 0 348.16 0 0 Z " fill="#FEFEFE" transform="translate(0,0)"/>
<path d="M0 0 C3.6323391 2.78951709 5.64264981 5.98297348 6.43359375 10.484375 C6.1775397 37.94617227 -2.34953915 65.04633379 -9.09765625 91.4609375 C-9.38204559 92.57704407 -9.38204559 92.57704407 -9.67218018 93.71569824 C-11.61489224 101.30206881 -13.74946281 108.73974046 -16.47265625 116.0859375 C-19.02764251 123.2168937 -21.39414603 130.38193937 -23.53515625 137.6484375 C-23.79409668 138.49680176 -24.05303711 139.34516602 -24.31982422 140.21923828 C-26.55377947 147.98211778 -27.58124798 154.70342733 -23.56054688 161.984375 C-23.05297852 162.83902344 -23.05297852 162.83902344 -22.53515625 163.7109375 C-19.03888602 169.68949375 -19.03888602 169.68949375 -19.28881836 172.97021484 C-20.24245372 175.90682455 -21.13172007 176.7527209 -23.60546875 178.546875 C-24.33813965 179.0821582 -25.07081055 179.61744141 -25.82568359 180.16894531 C-26.61668457 180.71905273 -27.40768555 181.26916016 -28.22265625 181.8359375 C-29.43042725 182.69203613 -29.43042725 182.69203613 -30.66259766 183.56542969 C-42.08705855 191.46343393 -54.78603664 198.63127102 -69.09765625 196.4609375 C-78.22803308 193.30829617 -90.47502784 187.33362881 -96.484375 179.69921875 C-98.1373455 178.15664704 -98.1373455 178.15664704 -100.95703125 178.578125 C-104.25339943 179.50471606 -106.50725548 180.68950226 -109.34765625 182.5859375 C-110.79398438 183.53533203 -110.79398438 183.53533203 -112.26953125 184.50390625 C-113.99446877 185.69754395 -115.69902632 186.9223335 -117.36328125 188.19921875 C-127.77818596 196.11964454 -141.93301821 202.57576155 -155.09765625 203.4609375 C-156.86689453 203.59822266 -156.86689453 203.59822266 -158.671875 203.73828125 C-170.08279967 204.21133273 -178.49504101 201.71997631 -187.41015625 194.5234375 C-193.06449362 189.03246782 -196.21650643 182.67527552 -199.09765625 175.4609375 C-199.53207031 174.3884375 -199.96648437 173.3159375 -200.4140625 172.2109375 C-209.19916442 145.76380139 -201.84847549 116.417996 -190.01416016 92.24804688 C-170.88907869 54.94509644 -135.88132173 19.15263806 -95.87109375 5.34765625 C-84.55497043 2.68848441 -71.80144631 2.99519534 -61.27734375 8.07421875 C-59.09765625 9.4609375 -59.09765625 9.4609375 -57.60546875 11.19140625 C-56.13768428 12.71058277 -56.13768428 12.71058277 -53.8359375 12.4140625 C-50.30351535 11.18451756 -47.38996123 9.24603694 -44.28515625 7.2109375 C-31.14574998 -0.98043213 -14.98276528 -6.72930341 0 0 Z " fill="#01ADD9" transform="translate(479.09765625,322.5390625)"/>
<path d="M0 0 C4.54057777 4.31354888 5.12237082 8.23195286 5.29296875 14.32397461 C5.39705612 25.58752959 3.47476431 36.04332359 1 47 C0.8571759 47.63429932 0.71435181 48.26859863 0.56719971 48.92211914 C-4.31472812 70.56358826 -9.6687818 91.88444019 -16.5 113 C-18.00465733 117.6651829 -19.50438499 122.33191087 -21 127 C-21.29535645 127.91475098 -21.59071289 128.82950195 -21.89501953 129.77197266 C-27.41360715 146.50947549 -27.41360715 146.50947549 -24.38671875 163.234375 C-22.50525636 166.17464871 -22.50525636 166.17464871 -20.43359375 168.73046875 C-19 171 -19 171 -19.23486328 172.98022461 C-20.53451732 176.41099609 -23.59192993 178.23195775 -26.4375 180.375 C-27.07494141 180.86178223 -27.71238281 181.34856445 -28.36914062 181.85009766 C-38.59303338 189.55920108 -51.46575236 198.36643218 -64.88671875 197.3359375 C-65.58410156 197.22507812 -66.28148437 197.11421875 -67 197 C-67.72832031 196.88914062 -68.45664063 196.77828125 -69.20703125 196.6640625 C-76.70823182 194.94736983 -82.89942215 190.61182957 -89.265625 186.47265625 C-89.90177734 186.06031738 -90.53792969 185.64797852 -91.19335938 185.22314453 C-92.86167648 184.09364876 -94.45886678 182.8609617 -96.046875 181.62109375 C-99.92801784 179.49057222 -101.72202088 180.0565899 -106 181 C-109.10971616 182.46600542 -109.10971616 182.46600542 -112.09765625 184.421875 C-112.6538414 184.7637384 -113.21002655 185.10560181 -113.7830658 185.45782471 C-116.13103454 186.90114402 -118.4618942 188.37100901 -120.79272461 189.84179688 C-135.9782595 199.37234112 -153.36736883 206.72369416 -171.66796875 203.53515625 C-181.94814089 200.84159177 -189.56961535 194.81188271 -195.30078125 186 C-207.46320794 164.31096664 -206.05989718 138.72973565 -199.73095703 115.51806641 C-194.46460009 97.3760472 -184.46000861 80.88687696 -173 66 C-172.53287598 65.38479492 -172.06575195 64.76958984 -171.58447266 64.13574219 C-152.22946149 38.81298945 -124.1088204 9.74664368 -91 5 C-80.11753148 4.01287343 -68.86208286 4.24680566 -59.546875 10.69921875 C-56.15003208 12.43410938 -54.62858796 12.08172999 -51 11 C-48.68817485 9.79009869 -46.51946886 8.56004391 -44.3125 7.1875 C-31.37622527 -0.52649273 -14.82380291 -6.00964983 0 0 Z " fill="#01ADD9" transform="translate(282,322)"/>
<path d="M0 0 C6.05265636 0.0089484 12.10531142 0.00701991 18.15797305 0.00663924 C28.30130205 0.00756818 38.44460065 0.01614939 48.58791995 0.0299089 C60.24426369 0.04566435 71.90057436 0.05090518 83.55692798 0.05017334 C96.08586282 0.04949352 108.61478528 0.05645317 121.14371634 0.06561995 C124.70584784 0.06773102 128.26797729 0.0684583 131.83010936 0.06885886 C198.39538589 0.08346859 198.39538589 0.08346859 200.54763675 2.23571944 C200.63611418 4.75666021 200.66290976 7.25002837 200.645293 9.77087569 C200.64387805 10.52412627 200.6424631 11.27737685 200.64100528 12.05345321 C200.63539051 14.46841504 200.62283558 16.88328545 200.61013675 19.29821944 C200.60512365 20.93168165 200.60056041 22.5651453 200.59646487 24.19861007 C200.58541628 28.21101529 200.56814181 32.22335185 200.54763675 36.23571944 C199.97860057 36.23631653 199.40956439 36.23691362 198.82328469 36.2375288 C164.87582452 36.27365358 130.92846523 36.33064005 96.9810877 36.41364039 C92.87818969 36.42365434 88.77529128 36.43349906 84.67239261 36.44323897 C83.44749812 36.44615103 83.44749812 36.44615103 82.1978583 36.44912192 C69.08504766 36.4798955 55.97225439 36.49705286 42.85941456 36.50891367 C29.34081037 36.5214546 15.82229532 36.54924022 2.30374759 36.59033251 C-5.26260766 36.61291699 -12.82884799 36.62903561 -20.39524007 36.62760329 C-67.68488927 36.62415041 -113.81224864 39.15841463 -160.45236325 47.23571944 C-161.24280026 47.37149398 -162.03323728 47.50726851 -162.84762692 47.64715743 C-194.04768804 53.01169816 -224.86489204 59.76188934 -255.57736325 67.42321944 C-256.3968646 67.62750564 -257.21636594 67.83179183 -258.06070065 68.04226851 C-267.50685334 70.40458145 -276.91646995 72.86904268 -286.28259397 75.53251815 C-291.08311912 76.89023356 -295.899244 78.06966751 -300.76486325 79.17321944 C-307.06227527 80.61193939 -313.25381423 82.29292048 -319.45236325 84.11071944 C-330.43272248 87.32182189 -341.52851893 89.9590704 -352.66281247 92.57605147 C-360.3444455 94.39259028 -368.00723392 96.29522612 -375.62594724 98.3604753 C-387.38989253 101.54020673 -399.21536828 104.23313986 -411.13986325 106.73571944 C-413.01133573 107.13105685 -414.88275441 107.526649 -416.75412107 107.92248702 C-419.51718066 108.50654803 -422.28037078 109.08994233 -425.04406857 109.6709764 C-429.75979616 110.6627229 -434.47051913 111.6721553 -439.1750195 112.71618819 C-470.82583746 119.68557525 -503.06293495 123.5891477 -535.26059079 127.0000627 C-537.1753558 127.20593593 -539.0888856 127.42323294 -541.00216794 127.64245772 C-573.70472335 131.3818461 -607.72562414 130.22716491 -640.45236325 127.23571944 C-642.12417229 127.10078504 -643.79604228 126.96660253 -645.46798825 126.83337569 C-674.95945796 124.29778296 -705.56400907 118.25421101 -733.45236325 108.23571944 C-735.49109957 107.62173708 -737.53285616 107.01770317 -739.57736325 106.42321944 C-752.53732947 102.46367148 -765.17014901 97.35288356 -777.57736325 91.92321944 C-778.70501096 91.43547042 -778.70501096 91.43547042 -779.85543942 90.93786788 C-783.26487639 89.41447718 -786.02418097 88.09573057 -788.45236325 85.23571944 C-788.745332 82.97400069 -788.745332 82.97400069 -788.63986325 80.54821944 C-788.61279294 79.73997725 -788.58572263 78.93173507 -788.557832 78.09900069 C-788.52302732 77.48411788 -788.48822263 76.86923507 -788.45236325 76.23571944 C-783.72682433 76.79687486 -779.53333112 77.73834857 -775.057832 79.34509444 C-773.26889524 79.97870894 -773.26889524 79.97870894 -771.44381833 80.62512374 C-770.82342679 80.84743667 -770.20303525 81.06974959 -769.56384397 81.29879928 C-737.38741758 92.78677106 -704.39266318 99.47818335 -670.45236325 103.23571944 C-669.46236325 103.352863 -668.47236325 103.47000655 -667.45236325 103.59069991 C-627.14338186 108.24865741 -585.69877368 105.28991247 -545.45236325 101.23571944 C-544.61844052 101.1521318 -543.78451779 101.06854415 -542.92532468 100.98242354 C-535.1716128 100.19521536 -527.46966566 99.40461042 -519.84665036 97.73278975 C-517.01984988 97.14592672 -514.18640192 96.71074441 -511.3312695 96.28259444 C-458.87932309 88.39831298 -406.73097056 76.0239602 -355.70236325 61.61462569 C-353.55657959 61.00898094 -351.41074477 60.40351741 -349.26486325 59.79821944 C-347.64463254 59.34104537 -347.64463254 59.34104537 -345.99166989 58.87463546 C-338.61456214 56.80634439 -331.21258019 54.89572645 -323.76999021 53.07971358 C-316.90025787 51.38733108 -310.11476603 49.44700067 -303.3222363 47.47033858 C-296.49584459 45.49807225 -289.63401893 43.72215451 -282.72580075 42.05993819 C-278.14178313 40.94746576 -273.60804726 39.71764266 -269.07736325 38.40368819 C-260.06184328 35.80865019 -250.98673932 33.46501168 -241.88986325 31.17321944 C-240.4972981 30.82213622 -240.4972981 30.82213622 -239.07660031 30.46396041 C-222.63795098 26.34262475 -206.11268862 22.71747416 -189.51486325 19.29821944 C-188.41359097 19.07133437 -187.3123187 18.8444493 -186.17767453 18.61068892 C-178.94124289 17.12525025 -171.69948632 15.66806307 -164.45236325 14.23571944 C-163.03744092 13.95605834 -163.03744092 13.95605834 -161.5939343 13.67074752 C-150.06144588 11.4035025 -138.52357305 9.3465257 -126.88986325 7.67321944 C-126.17113034 7.56899673 -125.45239743 7.46477401 -124.71188474 7.35739303 C-83.13189867 1.351964 -41.94329063 -0.07539286 0 0 Z " fill="#6BB03B" transform="translate(804.4523632526398,607.7642805576324)"/>
<path d="M0 0 C8.80399321 6.99495351 14.69943027 17.67584996 16.28125 28.8125 C18.46881439 64.28757503 3.32182187 96.41567337 -10.67480469 128.16259766 C-13.97736964 135.66051281 -17.2137338 143.18723155 -20.46060181 150.7093811 C-21.51045673 153.13937196 -22.56275382 155.56828912 -23.6159668 157.99682617 C-23.94293549 158.75127518 -24.26990417 159.50572418 -24.60678101 160.28303528 C-25.21591031 161.68835703 -25.82551488 163.09347292 -26.43569946 164.49833679 C-31.22613544 175.32772377 -31.22613544 175.32772377 -30.03125 186.875 C-28.31020181 190.20235983 -26.6003523 191.88991388 -23.46875 193.9375 C-22.1075 194.865625 -22.1075 194.865625 -20.71875 195.8125 C-20.09754802 199.17734408 -20.54159602 200.53815738 -22.40625 203.42578125 C-24.82053873 206.24381083 -27.24320149 209.04800735 -29.71875 211.8125 C-30.32976562 212.51890625 -30.94078125 213.2253125 -31.5703125 213.953125 C-40.83255677 223.99062319 -58.71758425 236.75976616 -72.73657227 237.98950195 C-86.49348483 238.35625554 -96.40253157 238.16145521 -107.125 228.69140625 C-110.7130111 224.46142258 -111.46913666 219.66324862 -111.33203125 214.265625 C-108.4893195 198.25952829 -96.79382409 183.8148567 -87.71875 170.8125 C-65.69489594 139.11299769 -36.97214015 97.4990595 -41.71875 56.8125 C-42.941338 53.09177189 -44.60849543 50.0851243 -46.71875 46.8125 C-47.04875 45.8225 -47.37875 44.8325 -47.71875 43.8125 C-49.55055125 42.69564804 -49.55055125 42.69564804 -51.71875 41.8125 C-52.36972656 41.45929688 -53.02070312 41.10609375 -53.69140625 40.7421875 C-59.68500307 37.71738163 -65.04515898 36.81302303 -71.71875 37.8125 C-82.47762833 42.77813615 -87.72824258 54.28678132 -91.71875 64.8125 C-98.72397833 84.65732819 -103.46292722 105.42208655 -108.44238281 125.8527832 C-113.95312199 148.39170642 -121.46683192 177.78509672 -142.48046875 190.6328125 C-152.51441308 195.92120899 -162.19988488 197.07617862 -173.23828125 194.62890625 C-181.71231735 191.83981405 -188.26574818 185.12875228 -193.71875 178.3125 C-195.23371062 174.52509844 -194.94194743 172.73960753 -193.71875 168.8125 C-192.56081582 167.27326062 -191.34467203 165.77717181 -190.09375 164.3125 C-171.87780028 142.74611667 -167.20075639 108.21137494 -161.40625 81.5 C-161.23530823 80.71508179 -161.06436646 79.93016357 -160.88824463 79.12145996 C-156.81383216 60.60301798 -156.81383216 60.60301798 -155.21875 41.75 C-155.1775 41.03134766 -155.13625 40.31269531 -155.09375 39.57226562 C-154.9912079 37.19217853 -154.9912079 37.19217853 -155.71875 33.8125 C-158.61642302 31.48108163 -158.61642302 31.48108163 -161.71875 29.8125 C-162.7383183 25.30940669 -162.08755798 23.40482798 -159.65625 19.5 C-147.377598 6.57970823 -130.54591692 -0.83753511 -113.00390625 -1.40625 C-110.88814014 -1.44473932 -108.77222893 -1.47589964 -106.65625 -1.5 C-105.65126465 -1.51780518 -104.6462793 -1.53561035 -103.61083984 -1.55395508 C-87.0676433 -1.5363933 -87.0676433 -1.5363933 -82.71875 2.8125 C-82.64616054 4.99889453 -82.63501217 7.18750389 -82.65625 9.375 C-82.66527344 10.57253906 -82.67429687 11.77007812 -82.68359375 13.00390625 C-82.69519531 13.93074219 -82.70679688 14.85757812 -82.71875 15.8125 C-77.88643269 12.93169545 -73.45585226 9.85357176 -69.03125 6.375 C-49.04427691 -8.79188236 -22.00502826 -14.28897939 0 0 Z " fill="#01ADD9" transform="translate(927.71875,321.1875)"/>
<path d="M0 0 C1.04607422 0.79857422 1.04607422 0.79857422 2.11328125 1.61328125 C2.77972656 2.11472656 3.44617188 2.61617188 4.1328125 3.1328125 C10.2296694 8.07523496 14.73144104 14.15336879 19.11328125 20.61328125 C19.60393066 21.33644531 20.09458008 22.05960937 20.60009766 22.8046875 C22.17500356 25.16090015 23.71175878 27.53798079 25.23828125 29.92578125 C25.98525269 31.05463745 25.98525269 31.05463745 26.74731445 32.20629883 C29.04078215 35.89206893 30.10462062 37.96839753 30.1640625 42.39453125 C29.01491608 45.91459315 27.93297515 47.38262747 25.17578125 49.80078125 C19.74096307 54.6437862 18.76782481 58.42875579 18.11328125 65.61328125 C18.04496149 68.21501621 18.02512736 70.81836161 18.04736328 73.42089844 C18.05203613 74.1573761 18.05670898 74.89385376 18.06152344 75.65264893 C18.07196022 77.2414375 18.08460032 78.83021286 18.09924698 80.4189682 C18.1215701 82.96447484 18.13546009 85.50990346 18.14694214 88.05548096 C18.18020031 95.2906753 18.22094377 102.52574659 18.28466797 109.76074219 C18.65836718 153.63558261 18.49681303 194.98631004 -13.63671875 228.67578125 C-35.52989689 249.79321686 -65.26546841 263.4010308 -95.83666992 263.08398438 C-111.6564553 262.56097028 -128.52032469 257.76575885 -140.2109375 246.55078125 C-149.07524652 236.30206965 -151.43361087 225.16730119 -151.26171875 211.92578125 C-151.24939209 210.76731689 -151.23706543 209.60885254 -151.22436523 208.4152832 C-151.05528194 199.77264194 -150.3408338 191.9326097 -147.88671875 183.61328125 C-147.58556152 182.58364258 -147.2844043 181.55400391 -146.97412109 180.49316406 C-143.32478879 168.16493817 -139.42821153 155.92160818 -135.13671875 143.80078125 C-134.85376953 142.99995117 -134.57082031 142.19912109 -134.27929688 141.37402344 C-134.00537109 140.59961914 -133.73144531 139.82521484 -133.44921875 139.02734375 C-133.18625 138.28387695 -132.92328125 137.54041016 -132.65234375 136.77441406 C-132.15456385 135.3693287 -131.65467815 133.96498696 -131.15234375 132.56152344 C-126.43128432 119.21797353 -124.18291422 105.43822452 -123.57421875 91.30078125 C-123.10360515 85.79285917 -120.91832201 82.33413213 -116.88671875 78.61328125 C-101.26947226 67.02802611 -79.06564358 62.18190663 -59.88671875 64.61328125 C-53.75334099 65.86550635 -47.82705427 67.98307911 -43.63671875 72.80078125 C-38.1765617 81.57603366 -40.04386844 95.89591952 -41.94921875 105.73828125 C-45.41893075 119.33063926 -50.98810938 132.02069186 -56.94921875 144.67578125 C-67.29101911 164.75247465 -67.29101911 164.75247465 -68.88671875 186.61328125 C-67.89050945 189.43687142 -67.89050945 189.43687142 -65.88671875 191.61328125 C-56.80698133 193.64427515 -48.69428839 191.17173806 -40.88671875 186.61328125 C-40.1184375 186.19046875 -39.35015625 185.76765625 -38.55859375 185.33203125 C-29.07178168 179.62667574 -22.40990861 171.41537388 -17.44921875 161.67578125 C-17.13138428 161.05654785 -16.8135498 160.43731445 -16.48608398 159.79931641 C-11.67895011 149.73522811 -10.34909753 139.47884649 -10.44921875 128.42578125 C-10.45679199 127.24322754 -10.46436523 126.06067383 -10.47216797 124.84228516 C-10.65138119 115.26026418 -11.9247563 106.69978857 -14.88671875 97.61328125 C-15.10102539 96.92121582 -15.31533203 96.22915039 -15.53613281 95.51611328 C-18.92841728 84.65043357 -23.60660752 74.6697793 -28.88671875 64.61328125 C-31.30151819 59.98498418 -33.70518026 55.35092646 -36.10699463 50.71588135 C-37.17990303 48.65046523 -38.25921217 46.58849515 -39.33935547 44.52685547 C-45.6145377 32.50384839 -49.92033649 22.40459891 -47.88671875 8.61328125 C-45.57645572 1.63873718 -41.24664309 -2.48109791 -35.1328125 -6.328125 C-23.1933319 -11.95525412 -10.06004621 -7.20106327 0 0 Z " fill="#01ADD9" transform="translate(624.88671875,259.38671875)"/>
<path d="M0 0 C3.88139064 3.08746983 6.96392124 6.53148271 8.75 11.1875 C9.00062296 14.10754891 9.12024364 16.89209555 9.125 19.8125 C9.14949219 20.54984375 9.17398438 21.2871875 9.19921875 22.046875 C9.24348253 30.98815829 6.82562325 39.55538188 4.75 48.1875 C4.26690634 50.23637093 3.78434868 52.2853683 3.30224609 54.33447266 C1.6552863 61.29468512 -0.03752442 68.24313831 -1.75 75.1875 C-2.05280884 76.41663116 -2.35561768 77.64576233 -2.66760254 78.91213989 C-7.14354503 96.96012944 -12.30927054 114.46681201 -18.921875 131.83984375 C-21.90060101 139.73309396 -23.60365775 146.93766191 -23.5625 155.375 C-23.57861328 156.04724609 -23.59472656 156.71949219 -23.61132812 157.41210938 C-23.61586313 162.06955848 -22.7557206 165.2657559 -20.25 169.1875 C-17.19960779 171.08956849 -17.19960779 171.08956849 -14.25 172.1875 C-17.9000912 176.19981399 -21.61057171 178.79905189 -26.5 181.1875 C-27.18876221 181.5285376 -27.87752441 181.8695752 -28.5871582 182.22094727 C-42.26204597 188.74020925 -60.17692041 194.56039691 -75.2421875 190.3515625 C-82.25864877 187.17389463 -86.1718198 182.3438604 -89.5625 175.5625 C-96.54496883 151.44124403 -84.89243058 124.4182644 -76.90673828 101.81079102 C-72.35401416 88.87775508 -68.38244022 75.77272205 -64.5 62.625 C-64.20609375 61.63790039 -63.9121875 60.65080078 -63.609375 59.63378906 C-60.12390989 48.04670273 -60.12390989 48.04670273 -59.125 36.0625 C-59.16625 34.78375 -59.2075 33.505 -59.25 32.1875 C-63.07745451 30.44064692 -66.37442723 29.83863667 -70.5625 29.5625 C-71.63113281 29.48773438 -72.69976563 29.41296875 -73.80078125 29.3359375 C-74.60902344 29.28695312 -75.41726563 29.23796875 -76.25 29.1875 C-75.87433257 26.62915285 -75.489709 25.42148376 -73.61450195 23.59106445 C-72.91284912 23.082771 -72.21119629 22.57447754 -71.48828125 22.05078125 C-70.70590088 21.4777124 -69.92352051 20.90464355 -69.11743164 20.31420898 C-68.2743042 19.71552002 -67.43117676 19.11683105 -66.5625 18.5 C-65.70197021 17.8800415 -64.84144043 17.26008301 -63.95483398 16.62133789 C-61.39841921 14.79247605 -58.828684 12.98479564 -56.25 11.1875 C-55.56486328 10.70958008 -54.87972656 10.23166016 -54.17382812 9.73925781 C-38.58523334 -1.00730207 -18.31412366 -10.21364588 0 0 Z " fill="#01ADD9" transform="translate(737.25,318.8125)"/>
<path d="M0 0 C7.8375 -0.103125 15.675 -0.20625 23.75 -0.3125 C26.19889648 -0.35802002 28.64779297 -0.40354004 31.17089844 -0.45043945 C54.74168429 -0.70757788 54.74168429 -0.70757788 63.02246094 6.84448242 C64.56298344 8.49601454 65.80843111 10.08406009 67 12 C67.37125 12.58136719 67.7425 13.16273438 68.125 13.76171875 C70.36274327 19.48594596 69.88221926 27.68165256 68.3125 33.5859375 C65.63652769 39.40617727 61.24423923 42.50384052 56 46 C56.77923828 46.43699219 56.77923828 46.43699219 57.57421875 46.8828125 C64.30959619 50.84186985 68.98177077 55.32031232 71.49609375 62.86328125 C73.10056466 69.66673544 72.21076755 75.82746319 69 82 C65.1281246 88.04980532 59.59628181 91.28544435 53 94 C35.50777951 96.49888864 17.66981104 95 0 95 C0 63.65 0 32.3 0 0 Z " fill="#02AED9" transform="translate(855,702)"/>
<path d="M0 0 C0.74983154 0.00821777 1.49966309 0.01643555 2.2722168 0.02490234 C13.68913327 0.2544005 24.10092796 2.65413549 33.05078125 10.2578125 C39.19979598 16.71948899 43.6875 24.22150935 43.6875 33.25 C37.0875 33.25 30.4875 33.25 23.6875 33.25 C22.6975 30.94 21.7075 28.63 20.6875 26.25 C16.51977889 21.29379112 12.38066692 18.55692149 5.8828125 17.81640625 C4.52624349 17.79296875 3.16912075 17.79227828 1.8125 17.8125 C1.10504639 17.82007324 0.39759277 17.82764648 -0.33129883 17.83544922 C-7.7875783 18.07095591 -11.82377269 19.81783467 -17.0625 24.9375 C-24.47174959 34.74974946 -25.52079527 46.38012837 -24.3125 58.25 C-22.72184917 65.76501364 -19.44665189 73.06079712 -13.26171875 77.83203125 C-5.2011808 82.21729801 3.6192134 83.02878247 12.47265625 80.43359375 C18.58036775 77.50719442 20.90001407 73.27456637 23.6875 67.25 C30.2875 67.25 36.8875 67.25 43.6875 67.25 C40.96065987 79.52078058 36.18954113 86.93168492 25.5390625 93.82421875 C12.74055857 100.22347071 -0.84155227 100.5938477 -14.3359375 96.66015625 C-24.31590949 93.3269245 -32.69451627 86.82379006 -37.78515625 77.57421875 C-44.62583287 63.15494995 -46.05644386 45.34492923 -41.75 29.875 C-37.31811911 18.20644646 -28.75323758 8.42403965 -17.4296875 3.0390625 C-11.48855323 0.82483903 -6.27676439 -0.08368074 0 0 Z " fill="#03AEDA" transform="translate(795.3125,699.75)"/>
<path d="M0 0 C20.46 0 40.92 0 62 0 C62 4.62 62 9.24 62 14 C47.48 14 32.96 14 18 14 C18 22.25 18 30.5 18 39 C31.53 39 45.06 39 59 39 C59 43.95 59 48.9 59 54 C45.47 54 31.94 54 18 54 C18 62.58 18 71.16 18 80 C32.85 80 47.7 80 63 80 C63 84.95 63 89.9 63 95 C42.21 95 21.42 95 0 95 C0 63.65 0 32.3 0 0 Z " fill="#04AEDA" transform="translate(942,702)"/>
<path d="M0 0 C0.99 0.66 1.98 1.32 3 2 C4.37861183 10.19355796 2.2951632 17.99874514 -0.1875 25.75 C-0.47947266 26.70648438 -0.77144531 27.66296875 -1.07226562 28.6484375 C-2.03019248 31.77148504 -3.01544992 34.88524994 -4 38 C-4.57727463 39.8704891 -5.15454109 41.74098073 -5.73158264 43.61154175 C-12.10917104 64.21221849 -18.92342749 84.82582989 -26.875 104.875 C-27.19500977 105.7098291 -27.51501953 106.5446582 -27.84472656 107.40478516 C-30.12249622 112.95091097 -33.15895136 118.3089999 -38 122 C-40.6003418 122.31054688 -40.6003418 122.31054688 -43 122 C-44.94921875 120.4609375 -44.94921875 120.4609375 -46.6875 118.375 C-47.26886719 117.70210938 -47.85023438 117.02921875 -48.44921875 116.3359375 C-52.21488092 110.66373101 -52.32273549 105.14067239 -52.25 98.5625 C-52.24323242 97.67796143 -52.23646484 96.79342285 -52.22949219 95.88208008 C-51.76362385 65.90128559 -40.49537004 32.42082234 -20 10 C-19.08927734 8.98679687 -19.08927734 8.98679687 -18.16015625 7.953125 C-12.7800667 2.25517458 -8.1385302 -0.76778587 0 0 Z " fill="#FCFEFE" transform="translate(411,361)"/>
<path d="M0 0 C2.16959036 1.58261958 2.89663253 2.47928116 3.42260742 5.12890625 C3.40989175 11.79995082 1.91565391 16.90184413 -0.6875 23 C-3.33438269 29.55722152 -5.7580658 36.03477289 -7.5625 42.875 C-10.18023363 52.78602728 -13.1678617 62.56883946 -16.19189453 72.36279297 C-16.90098262 74.67686231 -17.59377715 76.99470343 -18.27734375 79.31640625 C-28.20788533 112.72741938 -28.20788533 112.72741938 -37 121 C-40.5625 122.5625 -40.5625 122.5625 -44 122 C-48.43761254 118.55983248 -50.66259908 114.39823645 -52 109 C-53.57788504 92.53789098 -51.43364405 76.8294262 -47 61 C-46.77006348 60.1735498 -46.54012695 59.34709961 -46.30322266 58.49560547 C-40.28378919 37.50639903 -28.61454987 15.81918107 -11.4375 1.875 C-7.0456259 -0.52056769 -4.9255659 -0.65674212 0 0 Z " fill="#FCFEFE" transform="translate(213,361)"/>
<path d="M0 0 C5.25997685 4.66225221 9.42330035 8.97042269 10.23828125 16.078125 C10.46701899 22.77171358 8.99126012 27.64451908 4.4921875 32.69140625 C-2.7854414 39.44436888 -10.27616703 41.65988471 -20.1081543 41.61547852 C-27.93383616 41.25164402 -32.11891218 37.95690592 -37.375 32.5625 C-41.53334854 26.00510422 -42.93703126 20.75297101 -42 13 C-39.42432651 5.81522658 -33.51048818 0.73775418 -27 -3 C-17.8622354 -6.35051369 -8.12372749 -5.54564959 0 0 Z " fill="#02AED9" transform="translate(745,242)"/>
<path d="M0 0 C3.96 -0.103125 7.92 -0.20625 12 -0.3125 C13.84851563 -0.38078003 13.84851563 -0.38078003 15.734375 -0.45043945 C21.9779748 -0.52878773 26.31515419 -0.05437247 31.51171875 3.52661133 C34.46344473 6.44880068 35.29131705 9.36331205 35.3125 13.4375 C35.21448054 17.41709009 34.59061334 19.85425523 32 23 C27.91228049 26.57675457 24.56973805 27.12471948 19.23828125 27.09765625 C17.72681519 27.09390991 17.72681519 27.09390991 16.18481445 27.09008789 C14.2680188 27.07643188 14.2680188 27.07643188 12.3125 27.0625 C6.2178125 27.0315625 6.2178125 27.0315625 0 27 C0 18.09 0 9.18 0 0 Z " fill="#F8FCFD" transform="translate(873,755)"/>
<path d="M0 0 C3.63 -0.103125 7.26 -0.20625 11 -0.3125 C12.69189453 -0.38078003 12.69189453 -0.38078003 14.41796875 -0.45043945 C21.04360883 -0.54096962 26.09380576 0.25498682 31 5 C33.27453089 8.74132365 33.37659394 11.63151032 33 16 C32.03086107 19.29507237 31.1612068 21.25626105 28.21875 23.14086914 C21.99715392 26.08189763 16.74809432 26.49449119 9.9375 26.25 C6.658125 26.1675 3.37875 26.085 0 26 C0 17.42 0 8.84 0 0 Z " fill="#F3FBFD" transform="translate(873,716)"/>
<path d="M0 0 C2.47923801 -0.02685095 4.9581884 -0.04676547 7.4375 -0.0625 C8.14455078 -0.07087891 8.85160156 -0.07925781 9.58007812 -0.08789062 C11.38693559 -0.09653588 13.19387603 -0.05220011 15 0 C23.2529456 8.2529456 16 23.3285724 16 35 C-45.05 35 -106.1 35 -169 35 C-169 34.67 -169 34.34 -169 34 C-108.61 34 -48.22 34 14 34 C14 23.44 14 12.88 14 2 C11.03 2 8.06 2 5 2 C1.9375 1.5 1.9375 1.5 0 1 C0 0.67 0 0.34 0 0 Z " fill="#6EB53B" transform="translate(989,609)"/>
<path d="M0 0 C2.47923801 -0.02685095 4.9581884 -0.04676547 7.4375 -0.0625 C8.14455078 -0.07087891 8.85160156 -0.07925781 9.58007812 -0.08789062 C11.38693559 -0.09653588 13.19387603 -0.05220011 15 0 C16 1 16 1 16.11352539 4.23461914 C16.11336631 5.66814126 16.10767407 7.10166912 16.09765625 8.53515625 C16.0962413 9.28840683 16.09482635 10.04165741 16.09336853 10.81773376 C16.08775376 13.2326956 16.07519883 15.64756601 16.0625 18.0625 C16.0574869 19.69596221 16.05292366 21.32942586 16.04882812 22.96289062 C16.03777954 26.97529585 16.02050506 30.98763241 16 35 C14 33 14 33 13.77294922 29.92724609 C13.78865967 27.99486084 13.78865967 27.99486084 13.8046875 26.0234375 C13.8075174 25.33819 13.81034729 24.6529425 13.81326294 23.94692993 C13.82446719 21.75610973 13.84957141 19.56569684 13.875 17.375 C13.88502952 15.8906309 13.89415542 14.4062554 13.90234375 12.921875 C13.92440706 9.28111739 13.95893824 5.64059844 14 2 C13.38584229 2.00580078 12.77168457 2.01160156 12.13891602 2.01757812 C11.33123779 2.02208984 10.52355957 2.02660156 9.69140625 2.03125 C8.89162354 2.03705078 8.09184082 2.04285156 7.26782227 2.04882812 C4.75173645 1.99465468 2.43585519 1.62860779 0 1 C0 0.67 0 0.34 0 0 Z " fill="#92C56E" transform="translate(989,609)"/>
<path d="M0 0 C0.66 0 1.32 0 2 0 C2 1.65 2 3.3 2 5 C-4.6 5 -11.2 5 -18 5 C-17.67 4.34 -17.34 3.68 -17 3 C-11.39 3 -5.78 3 0 3 C0 2.01 0 1.02 0 0 Z " fill="#29BCE2" transform="translate(837,728)"/>
</svg>
