<?xml version="1.0" encoding="UTF-8"?>
<svg version="1.1" xmlns="http://www.w3.org/2000/svg" width="1024" height="1024">
<path d="M0 0 C337.92 0 675.84 0 1024 0 C1024 337.92 1024 675.84 1024 1024 C686.08 1024 348.16 1024 0 1024 C0 686.08 0 348.16 0 0 Z " fill="#FEFEFE" transform="translate(0,0)"/>
<path d="M0 0 C0.76159424 -0.01877197 1.52318848 -0.03754395 2.30786133 -0.05688477 C7.50736352 0.00327476 10.51308118 1.07133053 14.625 4.5 C20.55614743 13.39672114 16.60401956 29.85633267 14.66992188 39.65869141 C12.63516042 49.33130744 10.3090453 58.84631859 7.54003906 68.33618164 C6.59646856 71.59864966 5.73446691 74.87266857 4.90234375 78.16479492 C2.73055662 86.75240319 0.23888009 95.22466736 -2.375 103.6875 C-2.71821289 104.80318359 -3.06142578 105.91886719 -3.41503906 107.06835938 C-4.88265948 111.80903966 -6.36639592 116.53630586 -8 121.22265625 C-11.20234544 130.49082581 -14.10883982 140.25670851 -9.984375 149.67578125 C-8.37274875 152.60426902 -8.37274875 152.60426902 -6.58984375 155.1953125 C-5.375 157.5 -5.375 157.5 -5.55737305 159.45288086 C-6.62079955 162.11541632 -7.88406757 162.94934692 -10.2421875 164.55859375 C-11.04060059 165.10741211 -11.83901367 165.65623047 -12.66162109 166.22167969 C-13.51578613 166.78790039 -14.36995117 167.35412109 -15.25 167.9375 C-16.11318848 168.51790039 -16.97637695 169.09830078 -17.86572266 169.69628906 C-25.28687809 174.6047479 -32.48916261 178.97471453 -41.375 180.5 C-42.07238281 180.62503906 -42.76976562 180.75007812 -43.48828125 180.87890625 C-54.9286712 181.83396545 -66.4381633 173.87243133 -74.87109375 166.84765625 C-75.72315804 166.08411812 -76.56598701 165.30901299 -77.375 164.5 C-81.54822717 164.05897085 -83.57211566 164.92312106 -86.9296875 167.3515625 C-87.7846582 167.95323242 -88.63962891 168.55490234 -89.52050781 169.17480469 C-90.42124023 169.81836914 -91.32197266 170.46193359 -92.25 171.125 C-100.69899359 176.96126434 -108.55464805 181.44260525 -118.375 184.5 C-119.15230469 184.76039063 -119.92960937 185.02078125 -120.73046875 185.2890625 C-130.28324306 187.97746052 -143.49235714 188.1994343 -152.375 183.5 C-163.94244904 176.80418534 -168.50994805 165.28274215 -172.12890625 152.92578125 C-178.29816622 125.44453231 -168.82147728 96.76676719 -154.18701172 73.62109375 C-135.15697841 44.72103497 -105.17557928 13.68223332 -70.28125 5.96875 C-59.08881825 4.16351907 -49.64766563 5.8766674 -40.375 12.5 C-38.63272781 13.53386749 -38.63272781 13.53386749 -36.375 13.5 C-33.91511981 12.19023206 -31.68698017 10.84512809 -29.375 9.3125 C-19.75401318 3.31314986 -11.41826854 0.20395938 0 0 Z " fill="#01ADD9" transform="translate(460.375,314.5)"/>
<path d="M0 0 C3.30145013 4.0864103 3.54137909 8.0568672 3.5 13.125 C3.49572998 13.93831787 3.49145996 14.75163574 3.48706055 15.58959961 C3.07438993 31.31628714 -0.60871226 47.20488429 -5.06665039 62.24804688 C-6.26916426 66.30807846 -7.33729752 70.36284369 -8.26171875 74.49609375 C-12.043861 91.38846353 -17.30216604 107.58035672 -22.97192383 123.91333008 C-25.20287964 130.61149543 -25.92697809 136.94006862 -25 144 C-23.63563038 146.65509428 -22.15893802 148.74291096 -20.21484375 151 C-19 153 -19 153 -19.08203125 155.51171875 C-22.54924136 164.91007127 -36.43242501 171.32154501 -44.890625 175.390625 C-52.49355788 178.47524348 -60.37491257 179.73817526 -68.1875 176.625 C-76.47192796 172.46015097 -84.2922228 167.13851813 -92 162 C-96.28043973 162.56740219 -99.81723262 165.00311763 -103.5 167.125 C-104.21051514 167.52807373 -104.92103027 167.93114746 -105.65307617 168.34643555 C-109.91335922 170.77095961 -114.11688089 173.27753223 -118.3125 175.8125 C-130.54004911 182.98266825 -143.90238395 185.74626003 -158 184 C-167.49758242 181.21970213 -174.10155781 175.26149791 -179.26953125 166.9609375 C-188.82205077 149.00076971 -189.02041449 124.03885489 -183.32421875 104.84375 C-170.28646133 65.56011504 -139.38189758 29.06337812 -102.84082031 9.92236328 C-94.24324597 5.61445402 -86.66098915 3.65154227 -77.125 3.6875 C-76.27808594 3.67138672 -75.43117188 3.65527344 -74.55859375 3.63867188 C-67.52031121 3.63328268 -61.27005665 4.87066079 -55.3125 8.75 C-53.03470356 10.20804689 -53.03470356 10.20804689 -50.25 10.0625 C-46.43076797 8.81390491 -43.76828808 6.86027131 -40.50390625 4.5625 C-29.17645338 -2.50611334 -12.53563524 -4.96694981 0 0 Z " fill="#01ADD9" transform="translate(294,317)"/>
<path d="M0 0 C5.83492047 0.00894619 11.66983957 0.00702004 17.50476551 0.00663924 C27.27054683 0.00756743 37.03629652 0.01614308 46.80206776 0.0299089 C58.0553242 0.04571383 69.30854637 0.05090347 80.56181312 0.05017334 C92.63197811 0.04949634 104.70213013 0.05643488 116.77229118 0.06561995 C120.21986726 0.06774008 123.66744122 0.06845953 127.11501789 0.06885886 C132.53592826 0.06986899 137.95681031 0.07601979 143.3777113 0.086025 C145.35530327 0.08892401 147.3328985 0.0901807 149.31049252 0.08959746 C152.02758252 0.08909965 154.74459553 0.09483027 157.46167469 0.10200667 C158.22647483 0.10045807 158.99127496 0.09890947 159.77925086 0.09731394 C166.92085617 0.12806389 173.8198126 0.72265239 181.00275135 1.23571944 C181.00275135 11.79571944 181.00275135 22.35571944 181.00275135 33.23571944 C176.26430614 33.2445188 176.26430614 33.2445188 171.43013477 33.25349593 C142.31500138 33.30892794 113.19994046 33.37903606 84.08488149 33.46470572 C80.25192241 33.47597095 76.41896298 33.48710987 72.5860033 33.49817061 C71.82308094 33.5003743 71.06015857 33.50257798 70.27411734 33.50484844 C57.99708812 33.54001071 45.72005893 33.56499287 33.44299836 33.58606646 C20.80135068 33.60799801 8.15976708 33.64120857 -4.48182589 33.684421 C-11.56376137 33.70831785 -18.64563353 33.72730428 -25.72760868 33.73333335 C-67.95488507 33.6982008 -67.95488507 33.6982008 -109.99724865 37.23571944 C-110.98276777 37.35985182 -111.9682869 37.48398419 -112.98367023 37.61187816 C-118.42274345 38.30674958 -123.83560876 39.10353672 -129.24724865 39.98571944 C-130.85887166 40.24087723 -132.47052629 40.49583534 -134.08220959 40.75061202 C-145.83553861 42.63039041 -157.54926996 44.72700187 -169.24724865 46.92321944 C-170.40504833 47.13960067 -170.40504833 47.13960067 -171.58623791 47.36035323 C-179.39055129 48.82793492 -187.10528228 50.41537859 -194.74773693 52.59924483 C-197.57835637 53.40013748 -200.42792475 54.02290371 -203.30974865 54.61071944 C-216.74746507 57.43426602 -230.16205189 60.29124334 -243.3292799 64.20837569 C-247.939185 65.49954187 -252.58539259 66.58744975 -257.24724865 67.67321944 C-263.87630831 69.21891346 -270.45153093 70.86802556 -276.99724865 72.73571944 C-283.52322147 74.59611415 -290.07766738 76.2504918 -296.68474865 77.79821944 C-306.21069176 80.03001183 -315.70518988 82.34570939 -325.0792799 85.16150069 C-334.17134849 87.88575799 -343.3673452 89.93102864 -352.63762951 91.95398116 C-358.72537791 93.28308185 -364.7972714 94.64785992 -370.84905529 96.13220382 C-385.13498425 99.63600542 -399.54524615 102.50908004 -413.99724865 105.23571944 C-415.02456097 105.4300154 -415.02456097 105.4300154 -416.07262707 105.62823653 C-437.95534935 109.75043911 -459.8296434 112.73181005 -481.99529552 114.84509444 C-485.34964395 115.16692258 -488.69666409 115.53564315 -492.04412365 115.92321944 C-565.35217471 123.91233847 -649.23740051 113.69290924 -714.99724865 79.23571944 C-716.99724865 77.23571944 -716.99724865 77.23571944 -717.19256115 75.29040694 C-717.12745698 73.27217778 -717.06235282 71.25394861 -716.99724865 69.23571944 C-710.82033685 69.82721578 -705.48558249 71.7226267 -699.68474865 73.86071944 C-667.74244742 85.21786837 -634.69687638 91.21817289 -600.99724865 94.23571944 C-600.09063488 94.32998214 -599.18402111 94.42424483 -598.2499342 94.52136397 C-586.30657793 95.64052182 -574.29412441 95.47690409 -562.30974865 95.48571944 C-561.11249157 95.4873912 -559.91523449 95.48906295 -558.68169689 95.49078536 C-540.22886395 95.49232644 -522.06264354 94.81290738 -503.73162365 92.67102218 C-501.05517919 92.35903862 -498.38040076 92.06359515 -495.70037365 91.78674483 C-485.22863251 90.69404821 -474.87377144 89.19840321 -464.49724865 87.42321944 C-463.33104992 87.22572097 -463.33104992 87.22572097 -462.14129162 87.02423263 C-427.44124416 81.14638657 -393.20189217 73.62116498 -359.05974865 65.11071944 C-358.0627998 64.86304824 -357.06585094 64.61537704 -356.03869152 64.36020064 C-344.68904658 61.53409664 -333.40609007 58.54710051 -322.17164135 55.29222274 C-315.73172224 53.42949756 -309.26661717 51.73677474 -302.74724865 50.17321944 C-296.02958342 48.52920444 -289.36155562 46.81911965 -282.74724865 44.79821944 C-274.05037199 42.14633503 -265.23432738 39.99032063 -256.40642834 37.82190108 C-247.9069667 35.73225779 -239.44965069 33.50766224 -230.99724865 31.23571944 C-201.07620884 23.24137373 -171.0573853 16.34756696 -140.55974865 10.92321944 C-139.63410107 10.75813888 -138.70845348 10.59305831 -137.75475597 10.4229753 C-124.54022976 8.07903698 -111.29652357 6.03662923 -97.99724865 4.23571944 C-96.96987591 4.09423476 -96.96987591 4.09423476 -95.92174816 3.94989181 C-64.15037503 -0.32522324 -31.98342943 -0.05960658 0 0 Z " fill="#6CB03B" transform="translate(767.9972486495972,575.7642805576324)"/>
<path d="M0 0 C9.43396177 6.97292827 15.40610342 15.68741036 17.859375 27.24609375 C19.44446193 39.94264003 17.96574565 51.21557445 14.25 63.375 C13.80926147 64.85299072 13.80926147 64.85299072 13.35961914 66.36083984 C11.20459221 73.50553829 8.85927919 80.53229336 6.1875 87.5 C5.78047852 88.56259033 5.37345703 89.62518066 4.95410156 90.7199707 C-0.25288107 104.02578283 -6.13027104 117.04846496 -11.97290039 130.08447266 C-15.5009185 137.96138636 -19.02471142 145.83743536 -22.2890625 153.828125 C-22.75521973 154.96797852 -23.22137695 156.10783203 -23.70166016 157.28222656 C-25.21079027 161.73440641 -25.76232093 165.76331579 -24.75 170.375 C-22.52633776 174.82232447 -19.75728765 177.48084781 -15.75 180.375 C-16.2040387 185.18246863 -18.50139233 188.09024939 -21.5625 191.625 C-22.30064941 192.48097778 -22.30064941 192.48097778 -23.05371094 193.35424805 C-32.14693591 203.57621774 -48.59489851 216.22240971 -62.85351562 217.57446289 C-65.26027208 217.67946751 -67.65357338 217.69702145 -70.0625 217.6875 C-70.86623047 217.70361328 -71.66996094 217.71972656 -72.49804688 217.73632812 C-79.56630283 217.74201457 -86.3634396 216.44374503 -92.125 212.125 C-96.90135467 207.12119987 -98.08285114 202.41524997 -97.97802734 195.72558594 C-97.61362668 191.96921593 -96.3024154 188.97364412 -94.625 185.625 C-94.27735596 184.90965088 -93.92971191 184.19430176 -93.5715332 183.45727539 C-87.76890473 171.98096575 -80.08207609 161.553323 -72.71875 151.046875 C-66.46667383 142.10716195 -60.84798783 133.02323836 -55.75 123.375 C-55.4087207 122.73095215 -55.06744141 122.0869043 -54.71582031 121.42333984 C-36.88495676 88.11885269 -36.88495676 88.11885269 -35.46875 51.5703125 C-38.13428232 45.18593267 -42.42581484 40.38993339 -48.6015625 37.11328125 C-53.94580188 35.27680626 -59.79329442 35.18229504 -65.0546875 37.3046875 C-84.86256509 50.33010117 -89.52084742 90.70024562 -94.25 111.75 C-96.89055169 123.37445542 -100.00537742 134.43394642 -104.75 145.375 C-105.19980225 146.43678467 -105.19980225 146.43678467 -105.65869141 147.52001953 C-111.13226686 160.20678908 -118.38598698 171.7676564 -131.4609375 177.60546875 C-139.74695282 180.39104045 -149.38872977 180.66175014 -157.58984375 177.4765625 C-164.52223515 173.94141896 -170.85595005 168.79191192 -173.75 161.375 C-174.35823783 157.79643571 -173.90798892 156.60809841 -171.84375 153.5625 C-170.9817683 152.49788827 -170.11698733 151.43553928 -169.25 150.375 C-158.38852434 136.09567192 -154.25946197 117.46156179 -149.75 100.375 C-149.37512451 98.98571289 -149.37512451 98.98571289 -148.99267578 97.56835938 C-138.98544148 65.33000079 -138.98544148 65.33000079 -138.75 32.375 C-141.18636109 30.67143705 -141.18636109 30.67143705 -143.75 29.375 C-144.58130902 25.87162627 -144.83848404 24.65221951 -143.75 21.375 C-136.07628879 11.48146211 -121.04838366 3.0086854 -108.75 1.375 C-104.43687425 1.18740425 -100.12653997 1.18918113 -95.80957031 1.18969727 C-93.75564995 1.18750603 -91.70226348 1.1692984 -89.6484375 1.15039062 C-88.34132813 1.14845703 -87.03421875 1.14652344 -85.6875 1.14453125 C-84.50027344 1.14042236 -83.31304688 1.13631348 -82.08984375 1.13208008 C-78.63676851 1.38323577 -75.93459329 2.0296513 -72.75 3.375 C-71.48762269 5.89975462 -71.65143596 7.68700466 -71.6875 10.5 C-71.69652344 11.41007812 -71.70554687 12.32015625 -71.71484375 13.2578125 C-71.72644531 13.95648438 -71.73804688 14.65515625 -71.75 15.375 C-67.41828511 13.36544155 -63.90054155 11.0525571 -60.1875 8.0625 C-43.47359927 -4.64337015 -19.19424238 -11.85236236 0 0 Z " fill="#01ADD9" transform="translate(876.75,313.625)"/>
<path d="M0 0 C2.31511005 1.729407 4.49280502 3.54628809 6.66015625 5.45703125 C7.31628906 6.0190625 7.97242188 6.58109375 8.6484375 7.16015625 C15.28266718 13.275879 19.90770471 20.86371693 24.66015625 28.45703125 C25.24796875 29.37871094 25.83578125 30.30039062 26.44140625 31.25 C29.69562195 36.64657437 29.69562195 36.64657437 29.5546875 39.8671875 C28.05038997 44.22242446 24.77340708 47.10485274 21.69140625 50.4453125 C17.11433599 57.23169937 18.56291105 66.65621901 18.64612198 74.56538963 C18.66851403 76.8045262 18.68235971 79.04357318 18.69381714 81.28279114 C18.72700113 87.64673943 18.76755284 94.01054801 18.83154297 100.37426758 C19.22190016 140.58082943 18.95345538 179.40441314 -10.8671875 210.0546875 C-30.50060227 228.70787305 -57.48859192 240.87944256 -84.71923828 240.82788086 C-99.18700195 240.44529671 -114.78962978 235.7449667 -125.51953125 225.7109375 C-134.94342454 214.0422971 -136.21454816 200.87868104 -135.33984375 186.45703125 C-134.76106255 181.03953566 -133.58325692 175.75295631 -132.33984375 170.45703125 C-132.19482422 169.80766602 -132.04980469 169.15830078 -131.90039062 168.48925781 C-128.61649389 153.98182655 -123.61159243 139.95091765 -118.84075928 125.88258362 C-117.87238671 123.02114824 -116.91250715 120.15692305 -115.95571899 117.29159546 C-115.42485663 115.71026692 -114.88279898 114.13270475 -114.33862305 112.5559082 C-111.97834156 105.36943276 -111.62165917 98.27573218 -111.25585938 90.75976562 C-110.77357974 83.42814093 -109.67990894 78.56856567 -104.11328125 73.3828125 C-94.70903961 67.05715811 -85.35985896 63.90419163 -74.33984375 61.45703125 C-73.15261719 61.17472656 -73.15261719 61.17472656 -71.94140625 60.88671875 C-60.56842937 59.00829915 -48.10655116 59.90838642 -38.33984375 66.45703125 C-33.31980625 72.93449899 -33.78036591 80.60858159 -34.33984375 88.45703125 C-36.28260658 102.19220652 -41.12533202 114.63704667 -46.99609375 127.12890625 C-57.74544407 148.32012197 -57.74544407 148.32012197 -60.33984375 171.45703125 C-59.07785324 174.62065974 -59.07785324 174.62065974 -56.33984375 176.45703125 C-46.31795962 177.8393601 -36.71688866 173.11462842 -28.5546875 167.5625 C-23.10744426 162.97485604 -19.0686323 157.48946927 -15.33984375 151.45703125 C-14.75589844 150.54050781 -14.75589844 150.54050781 -14.16015625 149.60546875 C-5.38891436 134.17080279 -5.07368328 113.76479992 -9.36669922 96.95678711 C-13.75615011 81.36134766 -20.26552245 66.9036674 -28.07421875 52.75341797 C-30.17441435 48.94276214 -32.22731869 45.10733432 -34.27734375 41.26953125 C-34.6427124 40.59889648 -35.00808105 39.92826172 -35.38452148 39.23730469 C-39.22166995 32.08466635 -41.91755005 25.67098516 -41.83984375 17.45703125 C-41.83484863 16.75860107 -41.82985352 16.0601709 -41.82470703 15.34057617 C-41.62619826 9.47909117 -40.39429325 5.66046314 -36.33984375 1.45703125 C-35.61861328 0.70873047 -35.61861328 0.70873047 -34.8828125 -0.0546875 C-24.99059634 -9.16387864 -10.44084618 -6.88503212 0 0 Z " fill="#01ADD9" transform="translate(602.33984375,257.54296875)"/>
<path d="M0 0 C4.74587762 4.16034726 7.55029155 8.71659924 8.41503906 15.03027344 C8.80504159 28.90754779 5.15375615 41.88774037 1.75 55.25 C1.27980438 57.13436264 1.27980438 57.13436264 0.80010986 59.05679321 C-3.8258319 77.58812197 -9.07375478 95.76964576 -15.4765625 113.76171875 C-22.43815305 131.56128922 -22.43815305 131.56128922 -21.234375 150.07421875 C-19.4210045 153.04613152 -17.26186288 154.83504897 -14 156 C-14 156.99 -14 157.98 -14 159 C-21.80148182 163.47421228 -29.5593816 167.45883752 -38.0625 170.4375 C-38.76366943 170.68387207 -39.46483887 170.93024414 -40.18725586 171.18408203 C-49.29249348 174.25738642 -61.39588826 176.55016824 -70.5 172.4375 C-76.88227505 168.51520249 -80.71563499 163.21392829 -82.5234375 155.9609375 C-86.2395613 132.87223387 -76.29083149 110.39828385 -69.01171875 88.9375 C-57.67361543 60.08973797 -57.67361543 60.08973797 -54 30 C-57.52155964 27.65229357 -59.50771843 27.62330386 -63.6875 27.375 C-64.86699219 27.30023438 -66.04648437 27.22546875 -67.26171875 27.1484375 C-68.61716797 27.07496094 -68.61716797 27.07496094 -70 27 C-69.890625 25.29296875 -69.890625 25.29296875 -69 23 C-66.94523237 21.28076523 -64.96369943 19.79669483 -62.75 18.3125 C-62.12101807 17.87969727 -61.49203613 17.44689453 -60.84399414 17.00097656 C-59.53750267 16.10238531 -58.22829992 15.20772416 -56.91650391 14.31689453 C-55.13407394 13.09212673 -53.38192016 11.83563383 -51.63671875 10.55859375 C-37.85186032 0.61127833 -16.7894092 -10.01042181 0 0 Z " fill="#01ADD9" transform="translate(707,313)"/>
<path d="M0 0 C3.72813965 2.16372197 6.04367195 4.91161144 8.5625 8.375 C8.8925 5.405 9.2225 2.435 9.5625 -0.625 C14.8425 -0.625 20.1225 -0.625 25.5625 -0.625 C25.675835 7.82490857 25.76740618 16.27421808 25.82156086 24.72468472 C25.84756333 28.64934655 25.88278703 32.57345774 25.93969727 36.49780273 C25.9943555 40.29095367 26.02399072 44.08357776 26.03688622 47.87709236 C26.04606604 49.31831204 26.06399152 50.75950558 26.09115028 52.20049858 C26.24321967 60.60979356 25.98162572 67.52787436 20.5625 74.375 C18.31640625 76.49609375 18.31640625 76.49609375 16.125 77.8125 C15.40441406 78.26496094 14.68382812 78.71742188 13.94140625 79.18359375 C4.36635314 83.9789816 -8.51252495 84.16415157 -18.82421875 81.5 C-23.97105602 79.10392262 -28.68431443 75.42420011 -31.4375 70.375 C-32.08984375 67.15234375 -32.08984375 67.15234375 -32.4375 64.375 C-29.87321485 64.23940325 -27.31614784 64.14066812 -24.75 64.0625 C-24.02876953 64.02060547 -23.30753906 63.97871094 -22.56445312 63.93554688 C-18.31543599 63.83853735 -16.92309798 63.96279875 -13.54296875 66.83203125 C-12.84816406 67.67121094 -12.15335938 68.51039063 -11.4375 69.375 C-8.87830818 70.65459591 -6.98265972 70.54316536 -4.125 70.5625 C-3.18011719 70.57667969 -2.23523438 70.59085938 -1.26171875 70.60546875 C1.7516997 70.35956047 3.87507129 69.74700308 6.5625 68.375 C9.57059782 62.93177538 8.73840466 56.41439344 8.5625 50.375 C7.881875 51.303125 7.20125 52.23125 6.5 53.1875 C2.63473885 57.70408969 -0.93937129 59.13666263 -6.75390625 59.69140625 C-13.86416309 59.92514746 -18.84126696 59.92193935 -24.4375 55.375 C-32.42558227 47.52005244 -34.65717697 39.60552626 -34.75 28.6875 C-34.76763779 18.93086274 -33.03136909 11.12302643 -26.1171875 3.84765625 C-18.83838956 -2.53398753 -8.94651223 -4.0250849 0 0 Z " fill="#03AEDA" transform="translate(759.4375,689.625)"/>
<path d="M0 0 C4.95 0 9.9 0 15 0 C20.73433677 5.94412958 20.73433677 5.94412958 22.484375 8.90625 C24.7743051 12.66011287 27.21594199 16.28181203 29.71313477 19.90063477 C30.82251603 21.51067994 31.92456993 23.12579821 33.01928711 24.74584961 C37.20975721 30.94188751 41.6174431 36.93974524 46.21826172 42.8371582 C48.73888247 46.11136212 50.70467226 49.01554157 52 53 C52.66 53 53.32 53 54 53 C54 35.51 54 18.02 54 0 C59.28 0 64.56 0 70 0 C70 27.06 70 54.12 70 82 C55 82 55 82 51.5859375 79.1328125 C50.43212891 77.22729492 50.43212891 77.22729492 49.375 75.125 C48.49861814 73.64226292 47.61825038 72.16187611 46.734375 70.68359375 C46.29287109 69.90999512 45.85136719 69.13639648 45.39648438 68.33935547 C43.06085683 64.426771 40.33686043 60.84980912 37.625 57.1875 C30.9287554 47.90119853 24.46495482 38.44878013 18 29 C17.67 46.49 17.34 63.98 17 82 C11.39 82 5.78 82 0 82 C0 54.94 0 27.88 0 0 Z " fill="#02AED9" transform="translate(589,668)"/>
<path d="M0 0 C2 2 2 2 2.27001953 3.86962891 C2.23996545 9.36471652 1.46701882 14.12747709 -0.125 19.375 C-0.45842407 20.52403809 -0.45842407 20.52403809 -0.79858398 21.69628906 C-2.71117067 28.2185473 -4.76109004 34.70039769 -6.84057617 41.17114258 C-8.31820596 45.77658801 -9.67686134 50.39167213 -10.9375 55.0625 C-13.09631805 62.72453456 -16.01621188 70.02242138 -18.97753906 77.40039062 C-20.10201852 80.25938232 -21.17449705 83.13496145 -22.2421875 86.015625 C-22.62737549 87.03986572 -23.01256348 88.06410645 -23.40942383 89.11938477 C-24.15973321 91.11581457 -24.89972478 93.11616278 -25.62768555 95.12084961 C-27.76913601 100.75192556 -30.11990039 106.20208831 -35 110 C-38.625 110.25 -38.625 110.25 -42 109 C-46.62111757 104.62867257 -48.05154087 99.52148721 -48.3359375 93.3046875 C-48.8591898 62.23730115 -38.52632702 29.01575092 -16.96875 5.8828125 C-11.73953571 0.88185756 -7.19815785 -0.73201605 0 0 Z " fill="#FCFDFE" transform="translate(411,352)"/>
<path d="M0 0 C2 2 2 2 2.37890625 5.90625 C2.23675486 11.89811019 0.11212585 16.9822081 -2.0625 22.5 C-5.26485657 30.98095253 -8.09808013 39.42914684 -10.4375 48.1875 C-24.44123716 99.94026228 -24.44123716 99.94026228 -34.01171875 108.87890625 C-36 110 -36 110 -39.4375 110.25 C-44.06750852 108.62543561 -44.93273215 106.57515579 -47.0546875 102.32421875 C-54.39619974 84.27380643 -45.57303913 57.08854076 -38.65942383 39.81591797 C-34.85736533 30.82206037 -29.74486392 22.86576071 -24 15 C-23.28328125 14.01515625 -22.5665625 13.0303125 -21.828125 12.015625 C-15.89292074 4.24004733 -10.53890384 -2.03909545 0 0 Z " fill="#FBFDFE" transform="translate(231,352)"/>
<path d="M0 0 C1.99609375 1.1171875 1.99609375 1.1171875 3.6875 2.25 C4.63625 2.86875 5.585 3.4875 6.5625 4.125 C9.75071237 7.31321237 11.6357076 10.3718442 11.76171875 14.94140625 C11.72498047 16.08416016 11.72498047 16.08416016 11.6875 17.25 C9.24815775 17.38501894 6.81625896 17.48403897 4.375 17.5625 C3.68470703 17.60439453 2.99441406 17.64628906 2.28320312 17.68945312 C0.26171875 17.73828125 0.26171875 17.73828125 -3.3125 17.25 C-5.1875 14.8125 -5.1875 14.8125 -6.3125 12.25 C-9.3691037 9.87264156 -12.66076164 9.88819438 -16.40625 10 C-19.1714201 10.36264526 -20.53561967 11.10293627 -22.3125 13.25 C-22.97916667 15.75 -22.97916667 15.75 -22.3125 18.25 C-18.80519619 21.86748089 -14.42991149 22.23987313 -9.6875 23.125 C6.18946806 26.41137022 6.18946806 26.41137022 11.171875 31.87890625 C13.8265117 35.94268229 14.35013903 39.52869692 13.6875 44.25 C11.66850383 50.39061556 8.17909716 54.84690601 2.6875 58.25 C-5.61044705 62.24810176 -16.21213046 62.86174536 -25.0625 60.5234375 C-30.9569257 58.07406466 -35.76970666 54.71846935 -39.1875 49.25 C-40.3125 46.25 -40.3125 46.25 -40.3125 41.25 C-35.0325 41.25 -29.7525 41.25 -24.3125 41.25 C-23.6525 42.9 -22.9925 44.55 -22.3125 46.25 C-18.97201897 48.47698735 -17.77964419 48.5211921 -13.875 48.5 C-12.92753906 48.50515625 -11.98007812 48.5103125 -11.00390625 48.515625 C-8.28697547 48.24748089 -6.63784417 47.63531142 -4.3125 46.25 C-4.3125 44.27 -4.3125 42.29 -4.3125 40.25 C-8.89742866 37.95753567 -13.21036572 36.79769166 -18.25 35.8125 C-28.27301793 33.75676944 -33.57359419 30.85835872 -39.3125 22.25 C-40.13728303 16.76423383 -39.88693177 11.55408348 -36.7890625 6.8515625 C-27.96457912 -2.71996709 -11.90270988 -5.15312567 0 0 Z " fill="#06AFDA" transform="translate(932.3125,689.75)"/>
<path d="M0 0 C4.87802715 5.16496992 7.39505989 9.44910795 7.26953125 16.55859375 C6.72048885 21.53180391 4.80679143 25.26767503 1.19921875 28.7265625 C-6.73705091 34.98311683 -13.95285948 36.99787926 -24 36 C-30.66463147 34.43967793 -35.40368489 29.65135232 -39 24 C-40.88532398 19.53475899 -41.58271492 15.8282093 -41 11 C-38.13395894 4.41066453 -33.29544199 -0.80828472 -26.90234375 -4.0703125 C-17.48824182 -7.75625717 -8.15546628 -5.75514832 0 0 Z " fill="#03AED9" transform="translate(716,245)"/>
<path d="M0 0 C5.61 0 11.22 0 17 0 C17 27.06 17 54.12 17 82 C11.39 82 5.78 82 0 82 C0 54.94 0 27.88 0 0 Z " fill="#00ADD9" transform="translate(699,668)"/>
<path d="M0 0 C0 4.62 0 9.24 0 14 C-2.289375 14.12375 -2.289375 14.12375 -4.625 14.25 C-9.38595781 14.73553677 -12.35973235 15.72375911 -16 19 C-18.34278625 23.36122563 -18.34272981 27.74350427 -18.4140625 32.58203125 C-18.43342865 33.39621017 -18.4527948 34.2103891 -18.4727478 35.04924011 C-18.53228752 37.63688852 -18.57882583 40.22458203 -18.625 42.8125 C-18.6632034 44.57228449 -18.7022565 46.33205074 -18.7421875 48.09179688 C-18.83955976 52.3944337 -18.91932992 56.69688818 -19 61 C-24.28 61 -29.56 61 -35 61 C-35 41.2 -35 21.4 -35 1 C-29.72 1 -24.44 1 -19 1 C-18.67 3.31 -18.34 5.62 -18 8 C-17.2575 7.05125 -16.515 6.1025 -15.75 5.125 C-11.29113055 -0.57244429 -6.80046117 -0.20001356 0 0 Z " fill="#01AEDA" transform="translate(859,688)"/>
<path d="M0 0 C5.61 0 11.22 0 17 0 C17 20.13 17 40.26 17 61 C11.39 61 5.78 61 0 61 C0 40.87 0 20.74 0 0 Z " fill="#00ADD9" transform="translate(866,689)"/>
<path d="M0 0 C5.61 0 11.22 0 17 0 C17 20.13 17 40.26 17 61 C11.39 61 5.78 61 0 61 C0 40.87 0 20.74 0 0 Z " fill="#00ADD9" transform="translate(796,689)"/>
<path d="M0 0 C5.61 0 11.22 0 17 0 C17 20.13 17 40.26 17 61 C11.39 61 5.78 61 0 61 C0 40.87 0 20.74 0 0 Z " fill="#00ADD9" transform="translate(671,689)"/>
<path d="M0 0 C5.24212212 2.13238866 8.08200287 4.35477721 10.33984375 9.59375 C12.08036181 15.93788683 12.03943897 22.55192317 9.25 28.5625 C6.86601816 32.62285069 4.47644932 34.50785023 0 36 C-3.4123949 36.45936085 -5.90033789 36.63944134 -8.94140625 34.87109375 C-12.99693603 31.62836326 -14.68588388 29.11879518 -16 24 C-16.61959423 17.36953708 -17.1553903 10.54052041 -13 5 C-8.77582216 0.58381407 -6.11937243 -0.9662167 0 0 Z " fill="#F8FCFD" transform="translate(758,701)"/>
<path d="M0 0 C0.66 0 1.32 0 2 0 C2 26.4 2 52.8 2 80 C6.62 80 11.24 80 16 80 C16 53.6 16 27.2 16 0 C16.33 0 16.66 0 17 0 C17 27.06 17 54.12 17 82 C11.39 82 5.78 82 0 82 C0 54.94 0 27.88 0 0 Z " fill="#30BEE3" transform="translate(699,668)"/>
<path d="M0 0 C0.66 0 1.32 0 2 0 C2 26.4 2 52.8 2 80 C6.62 80 11.24 80 16 80 C16 62.84 16 45.68 16 28 C16.33 28 16.66 28 17 28 C17 45.82 17 63.64 17 82 C11.39 82 5.78 82 0 82 C0 54.94 0 27.88 0 0 Z " fill="#3EC2E5" transform="translate(589,668)"/>
<path d="M0 0 C2.02734375 0.6328125 2.02734375 0.6328125 4.08984375 2.1953125 C5.45625804 5.74798964 5.83286566 8.88905353 5.02734375 12.6328125 C2.3462099 15.88267172 0.67600957 16.52856264 -3.47265625 17.1953125 C-6.97265625 16.6328125 -6.97265625 16.6328125 -9.91015625 14.5703125 C-11.97265625 11.6328125 -11.97265625 11.6328125 -12.59765625 8.1328125 C-11.97265625 4.6328125 -11.97265625 4.6328125 -10.03515625 1.6328125 C-6.27651726 -0.82180888 -4.31619953 -0.7899866 0 0 Z " fill="#09B0DB" transform="translate(682.97265625,665.3671875)"/>
<path d="M0 0 C2.875 1.4375 2.875 1.4375 5 4 C5.71555259 7.14496906 5.70993955 9.85433287 5 13 C2.29190436 16.36460367 0.71104337 16.91267888 -3.5625 17.4375 C-8.81873852 16.76852419 -8.81873852 16.76852419 -11 14 C-12.02116122 10.91870539 -12.42409007 8.22873908 -12 5 C-8.45442643 0.7626072 -5.52629574 -1.05822684 0 0 Z " fill="#08B0DB" transform="translate(878,665)"/>
<path d="M0 0 C3.32961021 0.55493503 5.30091917 1.49496853 8 3.5 C9.56935594 6.63871188 9.35201103 9.03855822 9 12.5 C6.40783917 16.19186542 4.95850936 17.32883761 0.5 18.125 C-3.95850936 17.32883761 -5.40783917 16.19186542 -8 12.5 C-8.625 9 -8.625 9 -8 5.5 C-5.54597925 2.1076772 -4.16402963 0.69400494 0 0 Z " fill="#07B0DB" transform="translate(804,664.5)"/>
<path d="M0 0 C0.66 0 1.32 0 2 0 C2 19.47 2 38.94 2 59 C6.62 59 11.24 59 16 59 C16 39.53 16 20.06 16 0 C16.33 0 16.66 0 17 0 C17 20.13 17 40.26 17 61 C11.39 61 5.78 61 0 61 C0 40.87 0 20.74 0 0 Z " fill="#32BFE3" transform="translate(866,689)"/>
<path d="M0 0 C0.66 0 1.32 0 2 0 C2 19.47 2 38.94 2 59 C6.62 59 11.24 59 16 59 C16 39.53 16 20.06 16 0 C16.33 0 16.66 0 17 0 C17 20.13 17 40.26 17 61 C11.39 61 5.78 61 0 61 C0 40.87 0 20.74 0 0 Z " fill="#2FBDE2" transform="translate(796,689)"/>
<path d="M0 0 C0.66 0 1.32 0 2 0 C2 19.47 2 38.94 2 59 C6.62 59 11.24 59 16 59 C16 39.53 16 20.06 16 0 C16.33 0 16.66 0 17 0 C17 20.13 17 40.26 17 61 C11.39 61 5.78 61 0 61 C0 40.87 0 20.74 0 0 Z " fill="#30BEE2" transform="translate(671,689)"/>
<path d="M0 0 C0.66 0.33 1.32 0.66 2 1 C-0.97 3.97 -3.94 6.94 -7 10 C-7 6.04435836 -5.59478606 4.89133304 -3 2 C-2.01 1.34 -1.02 0.68 0 0 Z " fill="#1BB8E0" transform="translate(501,329)"/>
<path d="M0 0 C0.33 0.66 0.66 1.32 1 2 C3.31 2 5.62 2 8 2 C8 2.66 8 3.32 8 4 C5.03 4 2.06 4 -1 4 C-0.67 2.68 -0.34 1.36 0 0 Z " fill="#41C4E6" transform="translate(638,336)"/>
</svg>
