<?xml version="1.0" encoding="UTF-8"?>
<!DOCTYPE svg PUBLIC "-//W3C//DTD SVG 1.1//EN" "http://www.w3.org/Graphics/SVG/1.1/DTD/svg11.dtd">
<svg xmlns="http://www.w3.org/2000/svg" version="1.1" width="1024px" height="1024px" style="shape-rendering:geometricPrecision; text-rendering:geometricPrecision; image-rendering:optimizeQuality; fill-rule:evenodd; clip-rule:evenodd" xmlns:xlink="http://www.w3.org/1999/xlink">
<g><path style="opacity:1" fill="#fefefe" d="M -0.5,-0.5 C 340.833,-0.5 682.167,-0.5 1023.5,-0.5C 1023.5,340.833 1023.5,682.167 1023.5,1023.5C 682.167,1023.5 340.833,1023.5 -0.5,1023.5C -0.5,682.167 -0.5,340.833 -0.5,-0.5 Z"/></g>
<g><path style="opacity:1" fill="#0caed9" d="M 727.5,199.5 C 741.486,198.741 751.32,204.741 757,217.5C 757.83,233.358 750.33,242.858 734.5,246C 714.989,247.154 705.156,237.988 705,218.5C 709.04,207.952 716.54,201.619 727.5,199.5 Z"/></g>
<g><path style="opacity:1" fill="#07add9" d="M 596.5,213.5 C 609.475,212.658 620.808,216.491 630.5,225C 641.675,236.336 650.675,249.17 657.5,263.5C 652.788,268.72 648.621,274.387 645,280.5C 644.805,303.836 644.805,327.17 645,350.5C 644.729,370.022 642.729,389.356 639,408.5C 626.687,441.481 604.187,464.648 571.5,478C 551.646,485.735 531.312,487.402 510.5,483C 486.059,476.06 474.059,459.893 474.5,434.5C 474.443,426.736 475.276,419.069 477,411.5C 483.061,390.316 489.728,369.316 497,348.5C 500.771,335.773 502.771,322.773 503,309.5C 505.114,305.052 508.281,301.552 512.5,299C 533.067,286.624 554.734,283.957 577.5,291C 583.781,295.061 586.781,300.894 586.5,308.5C 585.825,320.884 583.325,332.884 579,344.5C 570.688,361.773 563.354,379.44 557,397.5C 553.212,411.701 558.378,417.534 572.5,415C 602.3,404.003 616.966,382.503 616.5,350.5C 616.114,332.288 611.947,314.955 604,298.5C 596.667,284.5 589.333,270.5 582,256.5C 576.582,246.269 576.249,235.936 581,225.5C 585.02,219.919 590.186,215.919 596.5,213.5 Z"/></g>
<g><path style="opacity:1" fill="#06add9" d="M 892.5,276.5 C 921.337,272.652 939.504,284.652 947,312.5C 948.055,322.96 947.388,333.293 945,343.5C 941.47,357.423 937.137,371.09 932,384.5C 921.333,409.167 910.667,433.833 900,458.5C 899.174,463.589 899.508,468.589 901,473.5C 903.703,476.538 906.703,479.205 910,481.5C 910.667,482.833 910.667,484.167 910,485.5C 896.348,504.575 878.182,517.075 855.5,523C 843.095,524.968 832.261,521.801 823,513.5C 819.838,508.223 818.838,502.557 820,496.5C 822.865,488.438 826.531,480.771 831,473.5C 840.086,459.66 849.419,445.993 859,432.5C 871.404,411.693 881.071,389.693 888,366.5C 889.863,356.801 889.863,347.134 888,337.5C 880.766,323.13 869.6,318.63 854.5,324C 850.248,327.581 846.748,331.748 844,336.5C 839.882,344.853 836.548,353.52 834,362.5C 827.45,389.03 820.117,415.364 812,441.5C 807.633,453.075 801.133,463.242 792.5,472C 782.667,479.208 771.667,481.875 759.5,480C 747.743,476.578 739.41,469.244 734.5,458C 736.874,452.957 740.041,448.457 744,444.5C 749.302,434.268 753.635,423.602 757,412.5C 765.905,384.23 772.072,355.397 775.5,326C 777.029,320.011 774.862,316.178 769,314.5C 768.183,311.036 768.517,307.702 770,304.5C 791.048,284.237 815.881,277.737 844.5,285C 846.333,285.5 847.5,286.667 848,288.5C 848.175,292.211 848.675,295.878 849.5,299.5C 855.307,295.526 860.974,291.36 866.5,287C 874.774,282.194 883.441,278.694 892.5,276.5 Z"/></g>
<g><path style="opacity:1" fill="#05add9" d="M 715.5,277.5 C 743.833,276.433 754.333,289.766 747,317.5C 738.355,356.097 727.688,394.097 715,431.5C 713.939,437.724 714.606,443.724 717,449.5C 718.883,452.024 721.383,453.358 724.5,453.5C 724.703,455.39 724.037,456.89 722.5,458C 704.511,470.081 684.844,474.748 663.5,472C 655.491,468.824 650.658,462.99 649,454.5C 648.135,444.448 648.469,434.448 650,424.5C 656.93,401.044 664.263,377.711 672,354.5C 675.557,342.999 678.39,331.332 680.5,319.5C 680.826,313.989 678.159,311.156 672.5,311C 669.183,310.502 665.85,310.335 662.5,310.5C 674.207,298.345 687.874,288.512 703.5,281C 707.543,279.509 711.543,278.342 715.5,277.5 Z"/></g>
<g><path style="opacity:1" fill="#04add9" d="M 258.5,283.5 C 266.656,283.009 274.656,283.842 282.5,286C 284.487,287.319 285.654,289.152 286,291.5C 286.667,299.167 286.667,306.833 286,314.5C 278.197,354.183 267.864,393.183 255,431.5C 253.305,440.728 255.639,448.728 262,455.5C 262.667,456.833 262.667,458.167 262,459.5C 251.298,469.937 238.798,477.437 224.5,482C 219.079,482.839 213.746,482.506 208.5,481C 198.857,475.6 189.357,470.1 180,464.5C 167.48,471.179 154.98,478.012 142.5,485C 110.299,497.147 89.1322,486.98 79,454.5C 74.0088,427.446 78.0088,401.78 91,377.5C 108.591,345.574 132.758,319.74 163.5,300C 178.354,290.695 194.354,287.695 211.5,291C 216.815,292.663 221.815,294.829 226.5,297.5C 232.574,294.628 238.574,291.461 244.5,288C 249.254,286.358 253.921,284.858 258.5,283.5 Z"/></g>
<g><path style="opacity:1" fill="#05add9" d="M 456.5,283.5 C 463.175,283.334 469.842,283.5 476.5,284C 483.629,286.918 486.962,292.252 486.5,300C 484.799,316.043 481.965,331.876 478,347.5C 471.086,375.489 463.086,403.155 454,430.5C 453.333,435.167 453.333,439.833 454,444.5C 456.079,448.993 458.412,453.326 461,457.5C 461.667,458.5 461.667,459.5 461,460.5C 454.167,465.333 447.333,470.167 440.5,475C 424.537,485.312 408.871,484.979 393.5,474C 389.802,471.814 386.468,469.147 383.5,466C 380.167,464 376.833,464 373.5,466C 361.447,476.195 347.78,483.529 332.5,488C 312.88,493.792 297.046,488.626 285,472.5C 272.444,444.231 272.444,415.897 285,387.5C 304.281,346.885 333.781,316.052 373.5,295C 387.569,288.533 401.902,287.867 416.5,293C 419.656,294.672 422.656,296.505 425.5,298.5C 435.226,292.136 445.56,287.136 456.5,283.5 Z"/></g>
<g><path style="opacity:1" fill="#fdfefe" d="M 204.5,324.5 C 214.171,323.007 217.671,327.007 215,336.5C 204.465,367.771 194.132,399.104 184,430.5C 181.952,436.103 178.786,440.936 174.5,445C 172.635,446.301 170.635,446.635 168.5,446C 162.171,439.723 159.171,432.056 159.5,423C 160.964,391.268 171.13,362.768 190,337.5C 194.432,332.56 199.265,328.227 204.5,324.5 Z"/></g>
<g><path style="opacity:1" fill="#fdfefe" d="M 403.5,324.5 C 406.518,324.335 409.518,324.502 412.5,325C 414.059,326.996 414.726,329.329 414.5,332C 405.938,369.687 393.771,406.187 378,441.5C 372.584,448.402 367.584,448.069 363,440.5C 361.803,437.911 360.803,435.244 360,432.5C 358.084,395.917 368.417,363.25 391,334.5C 394.963,330.787 399.129,327.454 403.5,324.5 Z"/></g>
<g><path style="opacity:1" fill="#6baf3a" d="M 764.5,571.5 C 845.504,571.912 926.504,572.579 1007.5,573.5C 1007.5,585.167 1007.5,596.833 1007.5,608.5C 914.166,608.333 820.833,608.5 727.5,609C 678.862,612.234 630.862,619.567 583.5,631C 526.756,645.019 470.089,659.353 413.5,674C 356.007,688.478 297.673,697.478 238.5,701C 165.641,705.191 95.6414,693.191 28.5,665C 24.2547,662.961 20.088,660.794 16,658.5C 14.6842,655.312 14.1842,651.978 14.5,648.5C 28.9529,652.484 43.2862,656.984 57.5,662C 116.583,677.776 176.583,682.442 237.5,676C 284.063,671.573 330.063,663.906 375.5,653C 432.662,638.46 489.662,623.46 546.5,608C 594.885,595.102 643.885,585.102 693.5,578C 717.254,575.085 740.921,572.919 764.5,571.5 Z"/></g>
<g><path style="opacity:1" fill="#07aeda" d="M 536.5,694.5 C 541.833,694.5 547.167,694.5 552.5,694.5C 552.5,721.833 552.5,749.167 552.5,776.5C 547.821,776.666 543.155,776.499 538.5,776C 526.035,758.892 513.701,741.726 501.5,724.5C 501.217,723.711 500.717,723.044 500,722.5C 499.5,740.497 499.333,758.497 499.5,776.5C 494.167,776.5 488.833,776.5 483.5,776.5C 483.5,748.833 483.5,721.167 483.5,693.5C 488.179,693.334 492.845,693.501 497.5,694C 510.701,711.569 523.534,729.402 536,747.5C 536.5,729.836 536.667,712.17 536.5,694.5 Z"/></g>
<g><path style="opacity:1" fill="#60cae6" d="M 536.5,694.5 C 541.975,693.511 547.642,693.178 553.5,693.5C 553.831,721.338 553.498,749.005 552.5,776.5C 552.5,749.167 552.5,721.833 552.5,694.5C 547.167,694.5 541.833,694.5 536.5,694.5 Z"/></g>
<g><path style="opacity:1" fill="#0eaeda" d="M 794.5,694.5 C 799.833,694.5 805.167,694.5 810.5,694.5C 810.167,709.515 810.501,724.515 811.5,739.5C 812.107,739.376 812.44,739.043 812.5,738.5C 819.064,731.048 825.397,723.382 831.5,715.5C 837.833,714.167 844.167,714.167 850.5,715.5C 842.588,723.907 835.254,732.74 828.5,742C 836.284,753.063 843.951,764.23 851.5,775.5C 845.193,776.664 838.859,776.831 832.5,776C 827.189,767.864 821.522,760.03 815.5,752.5C 814.186,753.313 813.019,754.313 812,755.5C 811.5,762.492 811.334,769.492 811.5,776.5C 805.833,776.5 800.167,776.5 794.5,776.5C 794.5,749.167 794.5,721.833 794.5,694.5 Z"/></g>
<g><path style="opacity:1" fill="#6bcde7" d="M 794.5,694.5 C 799.975,693.511 805.642,693.178 811.5,693.5C 811.171,708.676 811.504,723.676 812.5,738.5C 812.44,739.043 812.107,739.376 811.5,739.5C 810.501,724.515 810.167,709.515 810.5,694.5C 805.167,694.5 799.833,694.5 794.5,694.5 Z"/></g>
<g><path style="opacity:1" fill="#0eaeda" d="M 857.5,694.5 C 862.833,694.5 868.167,694.5 873.5,694.5C 873.167,709.515 873.501,724.515 874.5,739.5C 875.107,739.376 875.44,739.043 875.5,738.5C 882.04,730.605 888.707,722.772 895.5,715C 901.528,714.17 907.528,714.336 913.5,715.5C 905.791,723.873 898.458,732.54 891.5,741.5C 899.13,753.262 907.13,764.762 915.5,776C 908.833,776.667 902.167,776.667 895.5,776C 890.189,767.864 884.522,760.03 878.5,752.5C 877.186,753.313 876.019,754.313 875,755.5C 874.5,762.492 874.334,769.492 874.5,776.5C 868.833,776.5 863.167,776.5 857.5,776.5C 857.5,749.167 857.5,721.833 857.5,694.5 Z"/></g>
<g><path style="opacity:1" fill="#54c6e4" d="M 857.5,694.5 C 862.975,693.511 868.642,693.178 874.5,693.5C 874.171,708.676 874.504,723.676 875.5,738.5C 875.44,739.043 875.107,739.376 874.5,739.5C 873.501,724.515 873.167,709.515 873.5,694.5C 868.167,694.5 862.833,694.5 857.5,694.5 Z"/></g>
<g><path style="opacity:1" fill="#01add9" d="M 984.5,694.5 C 989.833,694.5 995.167,694.5 1000.5,694.5C 1000.5,721.833 1000.5,749.167 1000.5,776.5C 995.167,776.5 989.833,776.5 984.5,776.5C 984.5,749.167 984.5,721.833 984.5,694.5 Z"/></g>
<g><path style="opacity:1" fill="#4ec5e3" d="M 984.5,694.5 C 989.975,693.511 995.642,693.178 1001.5,693.5C 1001.83,721.338 1001.5,749.005 1000.5,776.5C 1000.5,749.167 1000.5,721.833 1000.5,694.5C 995.167,694.5 989.833,694.5 984.5,694.5 Z"/></g>
<g><path style="opacity:1" fill="#11afda" d="M 584.5,713.5 C 595.76,712.103 605.594,715.103 614,722.5C 615,724.5 616,726.5 617,728.5C 617.5,744.497 617.667,760.497 617.5,776.5C 612.167,776.5 606.833,776.5 601.5,776.5C 601.665,773.482 601.498,770.482 601,767.5C 592.399,778.2 581.899,780.367 569.5,774C 560.803,766.699 559.303,758.199 565,748.5C 567.559,745.469 570.726,743.302 574.5,742C 583.389,740.041 592.389,739.207 601.5,739.5C 601.699,728.549 596.366,724.383 585.5,727C 582.574,728.507 580.574,730.841 579.5,734C 574.511,734.499 569.511,734.666 564.5,734.5C 566.368,722.965 573.034,715.965 584.5,713.5 Z"/></g>
<g><path style="opacity:1" fill="#11afda" d="M 658.5,713.5 C 668.423,712.709 675.59,716.709 680,725.5C 689.22,712.027 700.553,710.027 714,719.5C 716.194,722.554 717.861,725.888 719,729.5C 719.5,745.163 719.667,760.83 719.5,776.5C 713.833,776.5 708.167,776.5 702.5,776.5C 702.667,762.496 702.5,748.496 702,734.5C 698.081,727.53 692.581,726.03 685.5,730C 683.959,731.579 682.792,733.413 682,735.5C 681.5,749.163 681.333,762.829 681.5,776.5C 676.167,776.5 670.833,776.5 665.5,776.5C 665.667,762.163 665.5,747.829 665,733.5C 658.256,725.233 651.922,725.566 646,734.5C 645.5,748.496 645.333,762.496 645.5,776.5C 639.833,776.5 634.167,776.5 628.5,776.5C 628.5,755.833 628.5,735.167 628.5,714.5C 633.833,714.5 639.167,714.5 644.5,714.5C 644.335,718.182 644.501,721.848 645,725.5C 647.833,719.493 652.333,715.493 658.5,713.5 Z"/></g>
<g><path style="opacity:1" fill="#12afda" d="M 749.5,713.5 C 758.279,712.648 766.613,714.148 774.5,718C 777.372,720.537 779.872,723.37 782,726.5C 783.456,743.097 783.956,759.763 783.5,776.5C 777.833,776.5 772.167,776.5 766.5,776.5C 766.664,773.813 766.497,771.146 766,768.5C 758.597,777.299 749.431,779.799 738.5,776C 728.447,770.185 725.281,761.685 729,750.5C 732.752,745.706 737.585,742.539 743.5,741C 751.131,739.931 758.798,739.431 766.5,739.5C 767.218,728.827 762.218,724.661 751.5,727C 749.024,728.309 747.024,730.142 745.5,732.5C 740.544,733.494 735.544,733.827 730.5,733.5C 730.795,726.741 733.795,721.574 739.5,718C 742.893,716.38 746.226,714.88 749.5,713.5 Z"/></g>
<g><path style="opacity:1" fill="#12afda" d="M 939.5,713.5 C 949.617,712.53 958.95,714.697 967.5,720C 970.164,722.669 971.998,725.836 973,729.5C 973.5,745.163 973.667,760.83 973.5,776.5C 968.167,776.5 962.833,776.5 957.5,776.5C 957.665,773.482 957.498,770.482 957,767.5C 950.581,775.908 942.081,779.075 931.5,777C 918.544,771.691 914.71,762.524 920,749.5C 922.708,745.896 926.208,743.396 930.5,742C 939.046,740.08 947.713,739.246 956.5,739.5C 957.519,728.362 952.519,724.195 941.5,727C 938.637,728.364 936.637,730.53 935.5,733.5C 930.544,734.494 925.544,734.827 920.5,734.5C 920.29,729.584 921.79,725.251 925,721.5C 929.397,717.888 934.23,715.221 939.5,713.5 Z"/></g>
<g><path style="opacity:1" fill="#cbedf6" d="M 501.5,724.5 C 500.833,741.833 500.167,759.167 499.5,776.5C 499.333,758.497 499.5,740.497 500,722.5C 500.717,723.044 501.217,723.711 501.5,724.5 Z"/></g>
<g><path style="opacity:1" fill="#f7fcfd" d="M 590.5,749.5 C 594.167,749.5 597.833,749.5 601.5,749.5C 602.162,759.504 597.496,764.837 587.5,765.5C 579.252,764.497 576.918,760.33 580.5,753C 583.776,751.308 587.109,750.141 590.5,749.5 Z"/></g>
<g><path style="opacity:1" fill="#f9fdfe" d="M 757.5,749.5 C 760.5,749.5 763.5,749.5 766.5,749.5C 766.764,761.067 761.097,766.234 749.5,765C 744.857,762.928 743.357,759.428 745,754.5C 746.214,752.951 747.714,751.785 749.5,751C 752.365,750.817 755.031,750.317 757.5,749.5 Z"/></g>
<g><path style="opacity:1" fill="#f8fcfd" d="M 946.5,749.5 C 949.833,749.5 953.167,749.5 956.5,749.5C 957.223,761.493 951.557,766.66 939.5,765C 934.857,762.928 933.357,759.428 935,754.5C 938.283,751.361 942.117,749.694 946.5,749.5 Z"/></g>
</svg>
