<svg width="391" height="214" viewBox="0 0 391 214" fill="none" xmlns="http://www.w3.org/2000/svg">
<path d="M390.204 -42.2266H0.536133L0.620099 205.588C45.0592 203.937 45.1012 131.549 91.8703 136.051C121.237 138.884 124.344 195.233 156.986 196.208C192.504 197.278 183.896 145.947 209.737 142.233C250.512 142.233 230.618 176.463 239.833 202.425C242.793 210.753 252.438 215.659 261.191 212.133C280.839 204.217 270.13 164.807 269.228 148.263C268.619 137.214 268.052 121.457 269.123 110.69C272.104 80.4331 302.625 83.847 302.772 110.784C302.898 132.224 293.41 161.935 302.772 180.581C308.041 191.067 322.829 188.197 328.665 180.581C337.712 168.782 317.005 157.529 338.395 136.933C361.872 114.327 366.238 117.477 390.204 114.327V-42.2266Z" fill="#90CAF9"/>
</svg>
