<svg width="44" height="47" viewBox="0 0 44 47" fill="none" xmlns="http://www.w3.org/2000/svg">
    <g clip-path="url(#clip0_341_1940)">
        <path d="M23.0893 30.303C22.8055 30.0539 24.5136 28.6845 24.6878 28.3551C25.5298 26.7543 23.6603 25.9154 22.7877 24.8466C24.7588 18.5448 33.8207 20.34 33.6545 26.8604C34.1465 26.8604 34.7465 27.0098 35.074 26.5598V9.96396L34.7691 9.6602H9.48039V20.2854L7.04314 22.6126V9.6602H3.89455C3.75905 9.6602 2.59607 9.08322 2.38477 8.93857C-0.80576 6.75761 0.229791 1.87014 3.94294 1.00547L39.4485 0.949219C45.8537 2.10158 44.0246 10.7418 37.6403 9.68753L37.3064 10.1649V26.3573L37.5 26.7704C40.1727 26.4457 39.9695 30.303 38.0177 30.303H23.0893Z" fill="#05967B"/>
        <path d="M39.5402 31.3164V45.4838H17.8081V34.7574C19.4211 34.1965 20.4583 32.3868 21.7697 31.3164H39.5418H39.5402Z" fill="#05967B"/>
        <path d="M12.5271 45.582C12.2755 46.7681 10.5899 46.8308 10.2979 45.5771C10.0302 44.1982 10.6399 34.7945 10.2705 34.3718C10.227 34.322 9.51402 34.1789 9.06883 33.8495C8.15586 33.1744 4.23464 29.277 3.59105 28.3802C3.00392 27.5605 3.11844 27.4014 3.68783 26.6557C4.17173 26.0224 9.27852 20.9919 9.67693 20.873C12.3352 20.9742 15.0708 21.2025 17.7016 20.791L24.1134 26.953C24.4101 27.3275 24.4037 27.8289 24.1134 28.1905C22.0616 29.952 20.2599 32.3274 18.2226 34.0584C17.9291 34.3075 17.5887 34.3348 17.2903 34.547L17.3129 45.4952C17.079 47.0574 15.166 46.5222 15.166 45.7861V33.5425H12.5255V45.5836L12.5271 45.582ZM10.2915 32.3258V22.8145L5.4202 27.5702L10.2915 32.3258ZM17.1984 32.3258C17.5532 32.4142 17.6049 32.1796 17.8097 32.0237C18.313 31.6396 22.1116 27.8996 22.0584 27.5975C20.6454 26.3648 19.2614 24.4265 17.8097 23.3191C17.6049 23.1632 17.5532 22.9286 17.1984 23.017V32.3258Z" fill="#05967B"/>
        <path d="M9.88657 45.4806H4.40234V31.3132C4.92818 31.3501 5.51855 31.191 6.02342 31.4176C6.9767 31.8468 8.65423 34.5388 9.88657 35.0563V45.479V45.4806Z" fill="#05967B"/>
        <path d="M12.8787 12.9459C18.0371 11.9928 18.7097 19.0372 14.4079 19.7315C9.75433 20.482 8.87524 13.6852 12.8787 12.9459Z" fill="#05967B"/>
        <path d="M27.7117 14.7558C32.2669 14.2302 31.5684 22.083 26.9488 20.2813C24.1857 19.2029 24.7874 15.0933 27.7117 14.7558Z" fill="#05967B"/>
        <path d="M14.5564 34.1484H12.9321V45.4824H14.5564V34.1484Z" fill="#05967B"/>
        <path d="M17.8081 30.3023V26.8613H20.7535C20.8212 26.8613 21.3067 27.4528 21.46 27.5701C20.2986 28.4235 19.3889 30.4405 17.8081 30.3023Z" fill="#05967B"/>
        <path d="M9.54484 26.8078C9.57388 26.8721 9.85454 26.7901 9.90132 27.1517C9.96261 27.6242 9.95777 30.027 9.69647 30.2166C8.82705 30.8434 6.70434 28.2976 6.24463 27.5985L9.3787 24.4355C9.70776 25.1218 9.24644 26.1504 9.54484 26.8094V26.8078Z" fill="#05967B"/>
    </g>
    <defs>
        <clipPath id="clip0_341_1940">
            <rect width="42.9512" height="45.5543" fill="white" transform="translate(0.484375 0.949219)"/>
        </clipPath>
    </defs>
</svg>
