<svg width="15" height="21" viewBox="0 0 15 21" fill="none" xmlns="http://www.w3.org/2000/svg">
    <g clip-path="url(#clip0_394_2214)">
        <path d="M7.61004 7.24775L7.37083 7.48695V20.3242L14.2264 19.6847L14.22 6.85705L11.7562 3.10156H4.81934L7.2911 6.60987H11.836V7.24775H7.61004ZM12.2298 12.3316C11.7259 12.8228 11.2507 13.349 10.7484 13.8402C10.7069 13.88 10.4645 14.1145 10.4454 14.124C10.4247 14.1336 10.4135 14.1416 10.3944 14.124L9.25416 12.9583L9.67994 12.5277L10.4326 13.2788L11.9077 11.8277L12.0752 12.0031C12.1294 12.1147 12.1804 12.2248 12.2282 12.3316H12.2298Z" fill="#00ADD9"/>
        <path d="M6.73295 20.3247L0.513672 19.6868V7.24826H5.29773C5.36152 7.06328 5.22756 6.61039 5.05853 6.61039H0.67314C1.60284 5.47976 2.3364 3.99511 3.46384 3.0957C4.02676 3.09889 6.1461 6.62315 6.73295 7.16853V20.3247Z" fill="#00ADD9"/>
        <path d="M3.54309 2.46399C3.52396 1.52791 3.38522 1.11967 4.4106 1.01921C5.7629 0.886848 9.81977 0.848576 11.0812 1.07183C11.2103 1.09416 11.4862 1.13721 11.5213 1.29349L11.5149 2.46399H3.54309Z" fill="#00ADD9"/>
    </g>
    <defs>
        <clipPath id="clip0_394_2214">
            <rect width="13.7127" height="19.4121" fill="white" transform="translate(0.513672 0.912109)"/>
        </clipPath>
    </defs>
</svg>
