<svg width="35" height="26" viewBox="0 0 35 26" fill="none" xmlns="http://www.w3.org/2000/svg">
    <path d="M21.6598 14.4005C23.3149 14.2856 25.6145 14.2837 27.223 14.6456C30.7043 15.4303 33.4935 18.4164 34.118 21.9778C34.37 23.4149 34.5553 25.0441 32.693 25.239H14.5784C12.6477 25.0856 12.8701 23.2933 13.1525 21.8321C13.9653 17.6269 17.4893 14.69 21.6608 14.4005H21.6598Z" fill="#00ADD9"/>
    <path d="M9.68168 0.50266C14.4102 0.323143 17.5321 5.41813 15.2705 9.65028C12.9633 13.9664 6.73467 13.8902 4.52632 9.5306C2.50239 5.53491 5.26117 0.670595 9.68168 0.50266Z" fill="#00ADD9"/>
    <path d="M23.3709 0.50266C28.0994 0.323143 31.2213 5.41813 28.9597 9.65028C26.6525 13.9664 20.4239 13.8902 18.2155 9.5306C16.1916 5.53491 18.9504 0.670595 23.3709 0.50266Z" fill="#00ADD9"/>
    <path d="M2.17437 25.2363C0.385251 24.9911 0.736041 22.6622 0.960393 21.3979C1.61729 17.7091 4.65651 14.8938 8.30699 14.4517C9.74912 14.2771 12.0221 14.3234 13.3768 14.8783C13.449 14.9083 13.4994 14.8388 13.4747 14.9922C11.6941 16.7729 10.4536 19.2215 10.0723 21.7453C9.89647 22.9122 9.82993 24.1041 10.195 25.2363H2.17342H2.17437Z" fill="#00ADD9"/>
</svg>
