<svg width="44" height="37" viewBox="0 0 44 37" fill="none" xmlns="http://www.w3.org/2000/svg">
    <g clip-path="url(#clip0_341_1933)">
        <path d="M41.4375 31.239H20.7471V1.85497C20.7471 1.2816 21.8647 0.231123 22.492 0.260419H39.5346C40.216 0.130679 41.4375 1.24393 41.4375 1.85497V31.239ZM30.8679 5.59233C30.1367 5.75973 30.1866 6.99017 31.0133 7.05295C32.2057 7.14084 32.0603 5.32448 30.8679 5.59233ZM23.9711 14.5863C22.8078 14.8039 22.8078 16.7374 24.0376 16.93C25.9571 17.2355 26.0111 14.2054 23.9711 14.5863ZM35.5711 22.6846C35.4547 22.559 35.1722 22.4209 34.9935 22.4083C32.5173 22.5925 29.7129 22.1698 27.2783 22.4083C26.7589 22.4586 26.4307 22.7432 26.3559 23.2789C26.2645 23.9401 26.2811 25.6937 26.3476 26.3801C26.3975 26.9158 26.626 27.3301 27.1993 27.4012C29.6755 27.2171 32.48 27.6398 34.9146 27.4012C35.4796 27.3468 35.7788 27.033 35.8453 26.4554C35.9242 25.769 35.9242 24.0322 35.8453 23.35C35.8203 23.1324 35.7248 22.8394 35.5752 22.6846H35.5711Z" fill="#00ADD9"/>
        <path d="M8.49501 9.74457C8.64873 11.2931 7.76378 12.8583 6.27224 13.3355L6.22654 13.5029L6.91622 13.9925L11.1748 19.0189L16.7961 19.0817C18.0384 19.383 17.8888 21.0906 16.6465 21.2622C14.7894 21.0989 12.4711 21.5133 10.6721 21.2496C10.4062 21.2119 10.2483 21.1408 10.0406 20.9859C9.40073 20.5172 8.31635 18.9519 7.71392 18.2698C7.66407 18.2154 7.71808 18.1107 7.52696 18.1651C7.63914 20.1991 7.37324 22.4005 7.52696 24.4178C7.78455 27.791 9.05589 31.5368 9.30102 34.8933C9.46721 37.1407 6.6337 37.5174 6.07281 35.5294C5.60333 33.8553 5.59918 31.7711 5.17124 30.0636C5.14216 29.9506 5.17124 29.8083 5.00921 29.779C4.75577 31.361 4.5605 32.9639 4.25305 34.5333C4.06194 35.5001 3.983 36.6343 2.76983 36.7975C1.46109 36.9775 0.788032 36.0316 0.871126 34.8054C1.08302 31.5995 2.31696 27.9752 2.5704 24.7484C2.80306 21.802 2.27957 18.4288 2.58286 15.5243C2.6618 14.75 2.99833 14.1641 3.5883 13.6744C3.75449 13.5363 4.00377 13.5698 3.95392 13.348C-0.217406 11.9209 1.72284 5.60126 6.04373 6.78566C6.99516 7.04514 7.57682 7.66454 8.14601 8.42625C9.05589 8.54762 10.1735 8.32162 11.0543 8.4388C11.5321 8.50158 11.7398 9.06239 11.4864 9.4558C11.154 9.98313 9.10159 9.66087 8.49085 9.74876L8.49501 9.74457Z" fill="#00ADD9"/>
        <path d="M19.5093 33.1395L42.6094 33.127C42.8961 33.173 43.3032 33.4534 43.3697 33.7505C43.4362 34.0477 43.4528 35.6297 43.4237 35.9938C43.3863 36.4249 43.054 36.8434 42.6177 36.8811L19.5799 36.8727C19.2974 36.8559 18.9193 36.5797 18.8362 36.3119C18.7531 36.044 18.7531 34.0393 18.8154 33.7505C18.8819 33.445 19.2309 33.2316 19.5051 33.1395H19.5093Z" fill="#00ADD9"/>
        <path d="M10.1983 23.0647H17.2155C17.3028 23.0647 17.9343 22.7676 18.0589 22.688C18.4079 22.4788 18.6365 22.1565 18.9564 21.918V23.5125C18.9564 23.592 18.6115 24.111 18.5077 24.2073C18.2708 24.4249 17.8429 24.5714 17.5271 24.609C16.1644 24.7681 13.252 24.7304 11.8518 24.6216C10.9129 24.5463 10.2315 24.0608 10.1899 23.0647H10.1983Z" fill="#00ADD9"/>
        <path d="M18.9648 18.407C17.332 16.3688 14.3115 17.4611 12.0389 17.1682L11.0127 15.9168C11.1664 15.7452 11.4074 15.7285 11.6193 15.7076C13.5429 15.5276 15.7491 15.8415 17.7018 15.7159C18.084 15.695 18.9648 16.3981 18.9648 16.7287V18.4028V18.407Z" fill="#00ADD9"/>
    </g>
    <defs>
        <clipPath id="clip0_341_1933">
            <rect width="42.5732" height="36.6328" fill="white" transform="translate(0.862793 0.248047)"/>
        </clipPath>
    </defs>
</svg>
