<svg width="23" height="50" viewBox="0 0 23 50" fill="none" xmlns="http://www.w3.org/2000/svg">
    <path d="M17.5308 0.269531C17.8114 0.424659 18.0836 0.560043 18.1386 0.915427C18.2937 1.92376 18.03 3.28888 18.1442 4.3367C18.0695 4.78798 17.645 5.02631 17.2036 4.98683L17.1119 5.07849L17.1303 7.12195C18.9692 11.4458 22.1296 15.4735 22.8503 20.1724V46.7063C22.6472 48.0291 21.543 49.1038 20.1933 49.1855L3.19416 49.1827C1.85583 48.9952 0.774168 47.9459 0.654297 46.5879L0.657117 20.1724C1.37212 15.4565 4.56916 11.4246 6.38979 7.074L6.39544 5.07849C6.34467 4.92336 6.10069 4.99811 5.95967 4.96426C5.67057 4.89516 5.39839 4.64131 5.36313 4.33811C5.23621 3.26773 5.45762 1.95196 5.36736 0.854786C5.41813 0.533248 5.73826 0.421839 5.97518 0.270942H17.5308V0.269531ZM16.6127 1.85889H6.89184V3.3876H16.6127V1.85889ZM15.5734 7.51541V5.07003L15.4817 4.97836H7.9312V7.51541L4.93582 13.5978C5.86518 13.7896 6.45326 14.7641 7.41928 14.8755C8.88594 15.0447 9.43876 13.8291 10.6854 13.5076C11.5936 13.2735 12.5921 13.3299 13.4382 13.7487C14.2844 14.1676 14.6355 14.836 15.665 14.8854C16.9357 14.946 17.4631 13.9236 18.573 13.5668L15.5762 7.51541H15.5734ZM19.3571 15.0123C19.068 14.829 18.0075 15.7485 17.7339 15.9106C16.9413 16.3831 15.9795 16.5608 15.0699 16.3958C13.3254 16.0785 12.5864 14.1521 10.6036 15.2619C9.26812 16.0079 8.90851 16.6665 7.11325 16.4042C5.89198 16.2265 5.58172 15.5595 4.65236 15.135C4.48031 15.056 4.20531 14.908 4.08544 15.1026C3.70608 16.0136 3.14198 16.8612 2.79506 17.7849C2.44814 18.7086 2.27327 19.7226 2.18301 20.7182V46.2804C2.23378 46.8713 2.50314 47.317 3.05878 47.5454L20.254 47.5948C20.9549 47.4523 21.323 46.8488 21.3258 46.1591L21.323 20.5997C21.1946 18.5013 20.3033 16.8217 19.3599 15.0123H19.3571Z" fill="#00ADD9"/>
    <path d="M5.04256 17.4632C5.3923 17.4153 5.7914 17.6508 5.88307 17.9991C5.99871 18.4349 5.57281 19.2768 5.46422 19.7859C5.38948 20.1371 5.34717 20.4882 5.29781 20.8422L5.30204 39.1882C5.11307 40.0357 3.95948 40.0357 3.77051 39.1882V20.4135C3.89743 19.6407 4.0314 18.7282 4.37128 18.0203C4.50384 17.7453 4.72243 17.5069 5.04115 17.4632H5.04256Z" fill="#00ADD9"/>
    <path d="M4.49183 41.3725C4.95863 41.3471 5.26183 41.6757 5.30555 42.1185C5.40991 43.1903 5.23222 44.4426 5.29004 45.5327C4.92478 46.3351 3.85722 46.2096 3.7726 45.3028C3.70914 44.6231 3.68094 42.6403 3.77825 42.0029C3.83184 41.6559 4.15055 41.3908 4.49324 41.3725H4.49183Z" fill="#00ADD9"/>
</svg>
