<svg width="24" height="25" viewBox="0 0 24 25" fill="none" xmlns="http://www.w3.org/2000/svg">
    <g clip-path="url(#clip0_188_6122)">
        <path d="M2.73347 23.8729C1.48025 23.7443 0.712123 22.9631 0.586655 21.6957L0.583008 3.84456C0.809872 0.945369 3.51546 1.79746 5.53681 1.67109C5.43542 2.67025 5.87893 3.71154 6.84183 4.07366L14.9666 4.10692C16.0397 3.8623 16.5138 2.70277 16.384 1.67035C18.1011 1.79155 20.5704 1.08726 21.3706 3.14692C21.4552 3.36494 21.6266 4.01084 21.6266 4.21555V16.6437C17.1506 14.9632 13.3764 20.0092 16.3118 23.8721H2.73347V23.8729ZM5.73523 7.95797C4.92333 8.12499 4.88977 9.4678 5.71699 9.56535H16.5685C17.554 9.42494 17.5927 8.06439 16.5685 7.9395L5.73596 7.95797H5.73523ZM5.51639 12.6781C4.63592 12.8592 4.83871 14.1458 5.64185 14.287L16.4948 14.2855C17.298 14.1909 17.4103 12.7786 16.4219 12.6596L5.51639 12.6781ZM5.73523 17.2512C4.92187 17.4182 4.92187 18.7374 5.64988 18.8527H10.8109C11.7074 18.5519 11.6979 17.5416 10.8109 17.2386L5.73523 17.2512Z" fill="#6AAF39"/>
        <path d="M19.7902 17.4773C24.2932 16.963 25.3246 23.663 21.0463 24.651C16.1158 25.7899 14.9188 18.0338 19.7902 17.4773ZM22.2623 19.5326C21.8283 19.6198 20.2001 21.6898 19.6866 22.0238C19.4947 22.0585 18.5596 20.797 18.2984 20.7165C18.1861 20.6817 18.0146 20.6758 17.9125 20.7379C17.7995 20.8547 17.7484 20.987 17.7965 21.1459C17.8381 21.2818 19.176 22.6557 19.3678 22.805C19.6676 23.0385 19.7362 22.9646 20.0265 22.7318C20.9128 22.0209 21.7284 20.868 22.6059 20.1068C22.8313 19.8563 22.5877 19.4668 22.2631 19.5326H22.2623Z" fill="#6AAF39"/>
        <path d="M8.06437 0.361328H14.0737C15.1679 0.721972 15.1278 2.4742 14.0132 2.7735L8.06437 2.76168C6.9512 2.36778 6.9512 0.755228 8.06437 0.361328Z" fill="#6AAF39"/>
    </g>
    <defs>
        <clipPath id="clip0_188_6122">
            <rect width="23.1832" height="24.4033" fill="white" transform="translate(0.583008 0.361328)"/>
        </clipPath>
    </defs>
</svg>
