<svg width="19" height="23" viewBox="0 0 19 23" fill="none" xmlns="http://www.w3.org/2000/svg">
    <g clip-path="url(#clip0_341_1887)">
        <path d="M17.9708 12.341C17.7611 12.2365 17.5141 12.1241 17.3145 12.0547C17.3867 12.3632 17.7117 12.497 17.9708 12.341Z" fill="#00ADD9"/>
        <path d="M2.24769 2.20835C3.38358 2.31428 4.67908 2.12532 5.83214 2.20763C5.94595 2.21121 6.13419 2.09884 6.16568 1.99076C6.19574 1.8877 6.19717 0.977268 6.17427 0.853444C6.1528 0.739641 6.04472 0.668782 5.94809 0.620111L2.0752 0.609375C1.93062 0.663056 1.83113 0.738209 1.81037 0.895673C1.78675 1.07318 1.78675 1.78248 1.82254 1.94424C1.86978 2.15682 2.06017 2.19117 2.24698 2.20835H2.24769Z" fill="#00ADD9"/>
        <path d="M10.0555 4.50393C11.8384 5.14881 16.3669 5.18532 18.1011 4.41947C18.1978 4.37652 18.3402 4.32571 18.391 4.22837C17.7776 3.94207 17.1034 3.77816 16.4335 3.68297C15.0177 3.48113 13.3193 3.47182 11.8992 3.63644C11.1298 3.72591 10.2509 3.86548 9.5752 4.25055C9.57448 4.33 9.97172 4.47387 10.0555 4.50393Z" fill="#00ADD9"/>
        <path d="M6.31355 4.13654L5.91846 3.12305L2.11929 3.13307C2.04342 3.15883 1.63616 4.09718 1.67552 4.13583H6.31355V4.13654Z" fill="#00ADD9"/>
        <path d="M17.9781 14.6986C18.195 14.6285 18.5486 14.2992 18.5615 14.0716C18.5858 13.64 17.5372 13.1154 17.1736 13.0016C16.1902 13.7116 14.8317 13.8304 13.6694 13.5656C12.9407 13.3995 12.0146 13.0238 12.0997 12.127C10.6697 12.1298 9.23246 12.1706 7.82029 12.4168C7.24984 12.5163 6.6844 12.6566 6.1297 12.8162C6.557 13.567 5.4476 13.9163 5.1885 13.1834C4.91365 13.3416 4.20077 13.7238 4.2659 14.1038C4.33605 14.5154 5.08758 14.8375 5.41539 15.0229C6.00015 14.1511 7.44095 14.0201 8.39718 14.1525C9.3026 14.2785 10.6396 14.7988 10.0327 15.9376C12.0919 16.0077 14.2019 15.9548 16.206 15.4294C16.3577 15.3893 17.0684 15.1989 17.1286 15.1116C17.0656 14.957 16.9539 14.9248 16.9689 14.7265C17.0119 14.1647 17.933 14.1167 17.9781 14.6979V14.6986ZM9.93031 13.4947C9.3799 13.4153 9.3892 12.6981 9.88307 12.5972C10.7062 12.429 10.7448 13.6128 9.93031 13.4947ZM12.6616 15.3321C11.9995 15.4222 11.9194 14.5433 12.4082 14.4324C13.2134 14.2491 13.3437 15.239 12.6616 15.3321Z" fill="#00ADD9"/>
        <path d="M6.90136 15.1252C6.78398 15.1517 6.56138 15.2218 6.46404 15.2834C6.41752 15.3127 6.38316 15.2805 6.40535 15.3865C7.32723 15.5003 8.4352 16.1058 9.25187 15.4094C8.5805 14.9706 7.66434 14.9527 6.90136 15.1245V15.1252Z" fill="#00ADD9"/>
        <path d="M4.34252 12.6109C5.17851 12.0663 6.41675 11.7112 7.72942 11.4965C7.66071 10.7765 7.77523 8.48038 7.73873 7.87557C7.67646 6.83559 7.27349 5.9674 6.81112 5.06055H1.1775C0.715124 5.96883 0.315738 6.88999 0.252037 7.92424C0.0294404 11.5624 0.417374 15.421 0.252037 19.082C0.330053 20.0096 0.911954 20.5944 1.80162 20.7933C2.01635 20.8413 2.88884 20.6344 3.40561 20.6953C3.36338 20.555 3.33833 20.4047 3.32616 20.2329C3.44068 18.2582 3.18015 16.1231 3.32616 14.1677C3.38199 13.424 3.73986 13.0039 4.3418 12.6117L4.34252 12.6109ZM5.79691 5.845C6.31869 5.70615 6.47759 6.41116 6.57636 6.78835C6.79824 7.63866 6.87912 9.44091 6.7739 10.3127C6.70233 10.9082 5.94149 10.8996 5.85704 10.3549C5.7053 9.37291 5.97084 8.27925 5.74108 7.21064C5.65877 6.82915 5.19425 6.00533 5.79691 5.84572V5.845Z" fill="#00ADD9"/>
        <path d="M8.63563 11.6182C8.64636 11.5724 8.65567 11.4858 8.66282 11.3691C8.35076 11.4049 8.03798 11.4472 7.72949 11.498C7.73236 11.5316 7.73593 11.5624 7.74023 11.5889C7.81824 12.0971 8.51824 12.1114 8.63563 11.6182Z" fill="#00ADD9"/>
        <path d="M12.3991 11.253C12.7198 11.2724 13.2394 11.1571 13.3969 11.5408C13.5851 11.9996 13.0197 12.1949 13.0197 12.2866C13.719 12.9121 15.7159 12.9243 16.4331 12.3946C16.6399 12.2422 16.6764 11.9788 17.0343 11.986C17.1009 11.9874 17.2003 12.0132 17.3149 12.0532C17.2991 11.9845 17.2948 11.9079 17.307 11.8228L17.9318 7.44169C17.1452 7.57553 16.3651 7.74516 15.5663 7.80815C13.973 7.93412 11.7571 7.88903 10.2168 7.46459C10.1109 7.43525 9.99208 7.40662 9.884 7.36296C9.45026 7.22052 8.761 6.95999 8.45752 6.66797C8.56202 7.05018 8.63359 7.4603 8.65793 7.92124C8.67797 8.29772 8.71232 10.5602 8.66294 11.3675C10.03 11.2115 11.3942 11.1908 12.3991 11.2523V11.253Z" fill="#00ADD9"/>
        <path d="M9.88379 7.36328C9.99187 7.40694 10.1107 7.43557 10.2166 7.46492C10.1551 7.44774 10.0348 7.41267 9.88379 7.36328Z" fill="#00ADD9"/>
        <path d="M18.0089 15.7627C14.7852 17.2521 8.10445 17.275 4.88002 15.787C4.6746 15.6925 4.46775 15.5136 4.24658 15.4785V20.3692C4.24658 20.8573 5.56928 21.4027 5.96795 21.5409C8.85025 22.5393 14.8532 22.6009 17.6095 21.241C17.8708 21.1121 18.5744 20.6891 18.5744 20.3692V15.4785C18.3625 15.5165 18.1972 15.6753 18.0089 15.7627Z" fill="#00ADD9"/>
        <path d="M8.36613 6.10352C8.36613 6.10352 8.36519 6.10539 8.36426 6.10726C8.36426 6.10632 8.36519 6.10539 8.36613 6.10352Z" fill="#00ADD9"/>
        <path d="M8.31641 6.21273C8.31641 6.21273 8.31641 6.21086 8.31734 6.20898C8.31734 6.20992 8.31734 6.21086 8.31641 6.21273Z" fill="#00ADD9"/>
        <path d="M8.44573 6.0293C8.42998 6.03932 8.41567 6.05077 8.40207 6.06294C8.38847 6.0751 8.37702 6.0887 8.36557 6.10373C8.36557 6.10445 8.36485 6.10517 8.36413 6.1066C8.34338 6.13594 8.32763 6.16958 8.31761 6.20966C8.31761 6.21038 8.31761 6.2111 8.31689 6.21253L8.44644 6.0293H8.44573Z" fill="#00ADD9"/>
        <path d="M9.89453 3.35177C9.89453 3.35177 9.89741 3.35033 9.89885 3.34961C9.89741 3.34961 9.89597 3.35105 9.89453 3.35177Z" fill="#00ADD9"/>
        <path d="M9.88379 3.35618C9.88379 3.35618 9.88841 3.3542 9.89369 3.35156C9.89105 3.35288 9.88775 3.3542 9.88379 3.35618Z" fill="#00ADD9"/>
        <path d="M8.36409 6.1066C8.36409 6.1066 8.3648 6.10517 8.36552 6.10373C8.37625 6.0887 8.38842 6.0751 8.40202 6.06294C8.41562 6.05005 8.42993 6.03932 8.44568 6.0293C8.46143 6.01928 8.47789 6.01069 8.49578 6.00281C8.94885 5.81099 10.0855 6.35711 10.6559 6.59402C10.6595 6.59545 10.6623 6.59688 10.6652 6.59831C10.6845 6.60619 10.7039 6.61406 10.7217 6.62122C10.7282 6.62408 10.7346 6.62623 10.7411 6.62909C10.7561 6.63482 10.7697 6.64054 10.784 6.64555C10.7912 6.64842 10.7983 6.65128 10.8048 6.65343C10.8169 6.65772 10.8284 6.66201 10.8398 6.66631C10.8463 6.66846 10.8527 6.6706 10.8592 6.67275C10.8706 6.67633 10.8806 6.67919 10.8899 6.68277C10.895 6.6842 10.9 6.68563 10.9043 6.68707C10.9179 6.69064 10.93 6.69351 10.9408 6.69566C12.8582 7.03349 15.3812 7.07428 17.2801 6.63052C17.6795 6.53748 18.0996 6.41938 18.4368 6.1796V5.28421C18.1462 5.3658 17.867 5.47388 17.5729 5.54545C15.548 6.03502 11.5062 6.09157 9.57441 5.30639C9.39977 5.23554 9.24803 5.15752 9.1192 5.07449C8.23883 4.50834 8.7692 3.83411 9.88361 3.35742C7.19384 3.79832 8.31541 6.21396 8.31541 6.21396L8.31685 6.21253C8.31685 6.21253 8.31685 6.2111 8.31756 6.20966C8.32758 6.16958 8.34333 6.13594 8.36409 6.1066Z" fill="#00ADD9"/>
        <path d="M9.89893 3.35016C9.9049 3.34778 9.90848 3.34598 9.89893 3.35016V3.35016Z" fill="#00ADD9"/>
        <path d="M10.8398 6.66505C10.8285 6.66152 10.8172 6.65728 10.8052 6.65234C10.8172 6.65658 10.8285 6.66081 10.8398 6.66505Z" fill="#00ADD9"/>
        <path d="M10.7836 6.64514C10.7701 6.6402 10.756 6.63455 10.7412 6.62891C10.756 6.63455 10.7694 6.6402 10.7836 6.64514Z" fill="#00ADD9"/>
        <path d="M8.40074 6.0625C8.38803 6.0745 8.37533 6.0879 8.36475 6.10272C8.37533 6.0879 8.38733 6.0745 8.40074 6.0625Z" fill="#00ADD9"/>
        <path d="M10.8907 6.68207C10.8805 6.67916 10.8703 6.67624 10.8594 6.67188C10.871 6.67552 10.8812 6.67843 10.8907 6.68207Z" fill="#00ADD9"/>
        <path d="M8.40234 6.06246C8.41575 6.05047 8.42987 6.03918 8.44539 6.0293C8.42987 6.03918 8.41505 6.05047 8.40234 6.06246Z" fill="#00ADD9"/>
        <path d="M8.36439 6.10742C8.34435 6.13677 8.32789 6.17041 8.31787 6.21049C8.32789 6.17041 8.34364 6.13677 8.36439 6.10742Z" fill="#00ADD9"/>
    </g>
    <defs>
        <clipPath id="clip0_341_1887">
            <rect width="18.3939" height="21.6685" fill="white" transform="translate(0.181152 0.609375)"/>
        </clipPath>
    </defs>
</svg>
