<?xml version="1.0" encoding="UTF-8"?>
<svg version="1.1" xmlns="http://www.w3.org/2000/svg" width="512" height="512">
    <path d="M0 0 C2.14550269 0.01611324 4.28912304 0.00001681 6.43457031 -0.01904297 C42.33336255 -0.07558456 72.64087448 16.95966574 97.54785156 41.78564453 C119.67348396 65.23337096 130.60366478 96.07545685 130.52050781 127.95361328 C130.52029633 128.70301178 130.52008484 129.45241028 130.51986694 130.22451782 C130.48664848 142.03249924 129.57136299 153.05005792 126.14550781 164.39111328 C125.79116397 165.68142922 125.43699485 166.97179316 125.08300781 168.26220703 C115.70132364 199.5670629 92.70360611 225.24681378 64.36987305 240.81811523 C55.20860887 245.68732017 46.21390167 249.7681676 36.14550781 252.39111328 C35.45859863 252.58286133 34.77168945 252.77460938 34.06396484 252.97216797 C1.62219738 261.8166436 -33.2917583 256.85967898 -62.38574219 240.45751953 C-71.43010309 235.17253172 -79.27166665 228.57607452 -86.85449219 221.39111328 C-87.75167969 220.55837891 -88.64886719 219.72564453 -89.57324219 218.86767578 C-106.06356121 203.07217357 -116.78288175 183.29950761 -122.85449219 161.39111328 C-123.19480469 160.20259766 -123.53511719 159.01408203 -123.88574219 157.78955078 C-131.47954801 125.51587605 -124.45811034 89.72342907 -107.85449219 61.39111328 C-102.38627968 52.67116701 -95.96830751 44.82137946 -88.85449219 37.39111328 C-88.17128906 36.64474609 -87.48808594 35.89837891 -86.78417969 35.12939453 C-74.06851455 21.68644966 -57.22319592 11.96322985 -39.79199219 6.01611328 C-38.80440918 5.67628418 -38.80440918 5.67628418 -37.796875 5.32958984 C-25.39889526 1.38288973 -12.95307888 -0.11507291 0 0 Z M-48.85449219 71.39111328 C-50.27491039 74.23194969 -50.16901491 76.24588606 -49.85449219 79.39111328 C-47.66257171 82.33964928 -46.46397836 83.28834484 -42.80517578 83.90527344 C-41.04681396 83.9176001 -41.04681396 83.9176001 -39.25292969 83.93017578 C-37.95742188 83.95337891 -36.66191406 83.97658203 -35.32714844 84.00048828 C-33.9612687 84.0070189 -32.59538198 84.01221908 -31.22949219 84.01611328 C-7.38766617 84.21177393 -7.38766617 84.21177393 0.38769531 90.60205078 C3.77843405 94.05306932 5.9978546 98.09580685 8.14550781 102.39111328 C7.49262283 102.38223083 6.83973785 102.37334839 6.16706848 102.36419678 C-0.62982425 102.27568412 -7.42655318 102.21536242 -14.22387695 102.17138672 C-16.76040294 102.15127487 -19.29688258 102.12398167 -21.83325195 102.08935547 C-25.4797713 102.04082086 -29.12567747 102.01813966 -32.77246094 102.00048828 C-33.90596481 101.97984314 -35.03946869 101.959198 -36.20732117 101.93792725 C-42.41338082 101.91015965 -42.41338082 101.91015965 -48.07446289 104.19677734 C-50.1519718 106.38499433 -50.1519718 106.38499433 -50.41699219 109.89111328 C-49.76333526 113.95831196 -49.03445724 114.89243086 -45.85449219 117.39111328 C-43.28121022 117.96576803 -43.28121022 117.96576803 -40.44335938 117.84521484 C-38.82213165 117.84476166 -38.82213165 117.84476166 -37.16815186 117.84429932 C-35.42734344 117.8133316 -35.42734344 117.8133316 -33.65136719 117.78173828 C-31.86197723 117.7732486 -31.86197723 117.7732486 -30.03643799 117.7645874 C-26.22538162 117.74219254 -22.41526452 117.69198757 -18.60449219 117.64111328 C-16.02117243 117.62105243 -13.43783794 117.60280094 -10.85449219 117.58642578 C-4.52083825 117.54231739 1.81226768 117.47537306 8.14550781 117.39111328 C7.53181427 118.66946845 6.91215723 119.94496175 6.29003906 121.21923828 C5.94561768 121.92983398 5.60119629 122.64042969 5.24633789 123.37255859 C2.13317739 129.08105516 -3.51789873 132.89491528 -9.58886719 134.98950195 C-12.89688837 135.57589148 -16.1931873 135.54726744 -19.54199219 135.56689453 C-21.06023538 135.5900821 -22.57846462 135.614199 -24.09667969 135.63916016 C-26.47991453 135.67432344 -28.8626305 135.70365897 -31.24609375 135.71704102 C-33.55368872 135.73251704 -35.85979182 135.77270293 -38.16699219 135.81689453 C-39.23276489 135.81403191 -39.23276489 135.81403191 -40.32006836 135.81111145 C-43.69938234 135.89460008 -45.55666807 136.16681897 -48.28808594 138.22387695 C-50.0799149 140.40739382 -50.0799149 140.40739382 -50.60449219 143.64111328 C-48.94932148 151.91696681 -40.04952186 156.93902455 -33.77636719 161.97314453 C-30.70225885 164.51709247 -27.77276129 167.17229931 -24.85449219 169.89111328 C-21.14607291 173.34293781 -17.36941831 176.65634675 -13.41699219 179.82861328 C-9.18446098 183.23051788 -5.18951381 186.80703851 -1.22949219 190.51611328 C7.08414878 199.07900739 7.08414878 199.07900739 17.45800781 204.07861328 C20.87104146 203.20551165 22.154114 202.30161192 24.14550781 199.39111328 C24.77940442 195.66697069 24.61575461 194.05649651 22.42285156 190.95361328 C20.16633765 188.41455131 17.88275968 186.41612639 15.20800781 184.32861328 C10.84951663 180.84065962 6.71504514 177.21080389 2.64550781 173.39111328 C-2.21302473 168.83628411 -7.1916469 164.56034606 -12.41699219 160.42626953 C-14.85449219 158.39111328 -14.85449219 158.39111328 -17.54199219 155.63720703 C-19.55631019 153.1588692 -19.55631019 153.1588692 -21.85449219 153.39111328 C-21.85449219 152.73111328 -21.85449219 152.07111328 -21.85449219 151.39111328 C-20.83742188 151.44332031 -20.83742188 151.44332031 -19.79980469 151.49658203 C-6.75015163 151.87614258 3.73980314 147.59575957 13.39550781 138.76611328 C18.74632002 133.14396171 22.37556362 125.92972722 24.14550781 118.39111328 C24.91217773 118.38176758 25.67884766 118.37242187 26.46875 118.36279297 C29.94498884 118.30908555 33.41988255 118.22543752 36.89550781 118.14111328 C38.10207031 118.12693359 39.30863281 118.11275391 40.55175781 118.09814453 C41.71191406 118.06591797 42.87207031 118.03369141 44.06738281 118.00048828 C45.13569336 117.97954102 46.20400391 117.95859375 47.3046875 117.93701172 C50.80921172 117.26357444 52.00782827 116.20730114 54.14550781 113.39111328 C54.89550781 109.89111328 54.89550781 109.89111328 54.14550781 106.39111328 C50.61183787 102.82832517 48.15381339 101.88359134 43.18847656 101.78173828 C41.52075195 101.73339844 41.52075195 101.73339844 39.81933594 101.68408203 C38.66884766 101.66990234 37.51835937 101.65572266 36.33300781 101.64111328 C35.16318359 101.61146484 33.99335938 101.58181641 32.78808594 101.55126953 C29.90715772 101.48071619 27.02703203 101.42794599 24.14550781 101.39111328 C22.97363281 98.46142578 21.80175781 95.53173828 20.62988281 92.60205078 C19.08953321 89.27003138 17.20900955 86.41980132 15.14550781 83.39111328 C16.70446777 83.42253418 16.70446777 83.42253418 18.29492188 83.45458984 C22.15627223 83.52707002 26.01756264 83.57294159 29.87939453 83.61083984 C31.54974484 83.63093721 33.22002494 83.65822012 34.89013672 83.69287109 C37.29314502 83.74147447 39.69522215 83.76409984 42.09863281 83.78173828 C42.84356995 83.80238342 43.58850708 83.82302856 44.35601807 83.84429932 C47.8472938 83.84580526 49.78055076 83.66191573 52.62109375 81.55419922 C54.68672744 78.62314308 54.65810953 76.90609647 54.14550781 73.39111328 C52.79154599 70.88628391 52.01695272 69.66943409 49.27721977 68.79442215 C45.72198258 68.12178968 42.1309075 68.2349098 38.52490234 68.22998047 C37.65613464 68.22501556 36.78736694 68.22005066 35.89227295 68.2149353 C33.02094732 68.20034141 30.14967692 68.19351672 27.27832031 68.18798828 C25.28058877 68.18223508 23.28285725 68.17647737 21.28512573 68.17071533 C17.09714501 68.16021361 12.90918344 68.15436534 8.72119141 68.15087891 C3.35890851 68.14539226 -2.00312071 68.12135702 -7.36532402 68.09290695 C-11.49175758 68.07427099 -15.61813011 68.06907448 -19.7446022 68.06754303 C-21.72132887 68.06451876 -23.69805453 68.05649784 -25.67473984 68.04335785 C-28.4417216 68.02627548 -31.20808434 68.02818283 -33.97509766 68.03466797 C-35.1956636 68.02084579 -35.1956636 68.02084579 -36.44088745 68.00674438 C-41.30156272 68.04237473 -44.64147947 68.69831688 -48.85449219 71.39111328 Z " fill="#2CCAA0" transform="translate(349.8544921875,31.60888671875)"/>
    <path d="M0 0 C1.17277496 -0.01283524 2.34554993 -0.02567047 3.55386353 -0.03889465 C5.47698868 -0.04997505 5.47698868 -0.04997505 7.43896484 -0.0612793 C9.41441788 -0.07338692 9.41441788 -0.07338692 11.42977905 -0.08573914 C14.23264437 -0.10080006 17.03548414 -0.11061509 19.83837891 -0.11816406 C23.38737974 -0.12910445 26.93573172 -0.1633399 30.48450661 -0.20333576 C33.24220734 -0.22982965 35.99976309 -0.23788547 38.7575798 -0.24144554 C40.68870829 -0.24854847 42.61973642 -0.27486904 44.5506897 -0.30183411 C56.47305662 -0.27317149 67.70689615 2.21545665 78.33740234 7.73950195 C78.98281982 8.07393311 79.6282373 8.40836426 80.29321289 8.75292969 C91.54020175 14.69678801 102.37715491 21.56315755 112.87255859 28.73950195 C121.01739768 33.15378882 128.78982335 33.598281 137.91877365 33.557127 C140.15753068 33.54790334 142.39547003 33.55836687 144.63418579 33.57374573 C150.99260402 33.61353376 157.35095045 33.61505585 163.70947266 33.61279297 C167.61688402 33.61274149 171.52385161 33.63209072 175.4311409 33.66212654 C177.61751881 33.67282262 179.80300193 33.66090111 181.98934937 33.64830017 C193.54481958 33.67802511 204.06213694 35.78830889 212.52490234 44.17700195 C220.08036403 53.549813 221.51304848 62.26984099 220.52490234 74.17700195 C218.98560285 80.78899296 215.84943599 86.86265651 210.52490234 91.17700195 C202.26570395 96.07052164 195.75841247 98.31563602 186.22387695 98.36645508 C185.38930466 98.37474838 184.55473236 98.38304169 183.69487 98.3915863 C181.88554193 98.40896172 180.07619168 98.42413535 178.26682854 98.43736267 C175.40500438 98.45841557 172.54329183 98.48543517 169.68153381 98.51403809 C162.57577066 98.58382126 155.46992784 98.6432921 148.36407471 98.70306396 C142.35647899 98.75398082 136.34894382 98.80879751 130.34143257 98.86888123 C127.5190574 98.89547576 124.6966766 98.91627609 121.87425232 98.93688965 C120.14834318 98.95349046 118.42243661 98.97036211 116.6965332 98.98754883 C115.51589294 98.99382545 115.51589294 98.99382545 114.31140137 99.00022888 C111.12461254 99.03705842 108.57006539 99.1619476 105.52490234 100.17700195 C103.62173499 102.74627788 103.51882744 104.07575357 103.71240234 107.30200195 C104.27402195 110.47907379 104.27402195 110.47907379 107.52490234 112.17700195 C110.3307247 112.38208256 113.03809564 112.47069918 115.8449707 112.4675293 C116.69420105 112.47424652 117.5434314 112.48096375 118.418396 112.48788452 C121.23390524 112.50692163 124.04917642 112.51079282 126.86474609 112.51293945 C128.82711382 112.51936784 130.78948059 112.52609623 132.75184631 112.53311157 C136.87356788 112.54510173 140.99520558 112.54879105 145.11694336 112.54760742 C150.37228238 112.54740515 155.62707504 112.57460452 160.88228512 112.60915184 C164.94121209 112.63151726 169.00001014 112.63544188 173.05899239 112.63438797 C174.99448068 112.63673339 176.92997311 112.64549659 178.86540031 112.6610527 C195.3591688 112.78111088 209.67180277 110.64760878 222.27490234 98.92700195 C229.11306983 91.54178107 232.20047941 84.01923926 234.07958984 74.1809082 C235.52490234 71.17700195 235.52490234 71.17700195 238.76855469 69.73779297 C244.79796978 67.66562009 250.94320814 65.950896 257.07177734 64.20043945 C258.37363073 63.8262402 259.67540759 63.45177465 260.97711182 63.07705688 C263.68959272 62.29690937 266.40265046 61.51881564 269.11621094 60.74243164 C272.5892352 59.74875258 276.06126891 58.75166675 279.53293991 57.7532711 C282.85808405 56.79710937 286.18363826 55.8423781 289.50927734 54.88793945 C290.75408875 54.53065765 291.99890015 54.17337585 293.28143311 53.80526733 C294.43653381 53.47467316 295.59163452 53.14407898 296.78173828 52.8034668 C297.79685486 52.51273285 298.81197144 52.2219989 299.85784912 51.92245483 C310.40327839 48.97496186 320.7329235 48.80358335 330.52490234 54.17700195 C336.89609054 58.08659471 341.69075659 65.69503351 344.05224609 72.7512207 C345.82251271 81.83663862 345.74195166 91.31272583 340.52490234 99.17700195 C333.26583316 109.57460767 321.93883888 114.09716642 310.71240234 119.17700195 C308.21455462 120.31902839 305.71911877 121.46626424 303.22412109 122.61450195 C302.58759613 122.90703857 301.95107117 123.1995752 301.29525757 123.50097656 C294.49429767 126.6354375 287.75894396 129.90190276 281.02490234 133.17700195 C270.37114282 138.35300524 259.65876415 143.38988193 248.90380859 148.3527832 C240.90612926 152.05092449 232.95509796 155.83646219 225.02490234 159.67700195 C214.50770406 164.76924822 203.94096587 169.74133639 193.33081055 174.63598633 C188.37482623 176.92233867 183.42274843 179.21026731 178.51318359 181.5949707 C160.05261519 190.55688541 141.89154829 195.77824056 121.21240234 195.61450195 C120.53958221 195.61146057 119.86676208 195.60841919 119.17355347 195.60528564 C108.1878773 195.53215506 97.98577216 194.60311934 87.52490234 191.17700195 C86.85007812 190.96269531 86.17525391 190.74838867 85.47998047 190.52758789 C69.20064073 185.23718751 54.8565012 176.26424272 40.23999023 167.54394531 C28.91301787 160.78757648 17.49315081 154.19966182 6.05078125 147.640625 C4.355175 146.65810427 2.67497575 145.64854206 1.01074219 144.61376953 C-1.4300355 143.20304701 -3.85179839 142.19538319 -6.47509766 141.17700195 C-6.49842575 122.94054197 -6.51607639 104.70408584 -6.52690983 86.46761417 C-6.53207298 78.00070256 -6.53911603 69.5338002 -6.55053711 61.06689453 C-6.56048337 53.68983102 -6.56695095 46.3127742 -6.56918615 38.93570417 C-6.57049336 35.02718142 -6.57357982 31.11867784 -6.58082771 27.21016121 C-6.58758702 23.53553753 -6.5897148 19.86094102 -6.58820534 16.18631172 C-6.58861403 14.18620585 -6.59400969 12.18610297 -6.59951782 10.18600464 C-6.59814316 9.00664841 -6.59676849 7.82729218 -6.59535217 6.61219788 C-6.59627397 5.58071153 -6.59719576 4.54922518 -6.59814548 3.48648167 C-6.36316863 -0.92378935 -3.84923555 0.03656907 0 0 Z " fill="#48D7A3" transform="translate(135.47509765625,284.822998046875)"/>
    <path d="M0 0 C0.71592316 -0.00700928 1.43184631 -0.01401855 2.16946411 -0.02124023 C4.53134168 -0.03881735 6.89201692 -0.02719963 9.25390625 -0.01367188 C10.89770741 -0.0163669 12.54150702 -0.02024941 14.18530273 -0.02526855 C17.62857253 -0.03116318 21.07142696 -0.02260216 24.51464844 -0.00390625 C28.92674318 0.01888371 33.33786467 0.00576037 37.74992371 -0.01819611 C41.14375126 -0.03265531 44.53734834 -0.02804763 47.93118286 -0.01768494 C49.55787267 -0.01501797 51.18458346 -0.0182864 52.81124878 -0.02760315 C55.08566653 -0.0377713 57.35851179 -0.02226664 59.6328125 0 C60.92646729 0.00318237 62.22012207 0.00636475 63.55297852 0.00964355 C67.50442665 0.62466471 68.42757877 1.36300482 70.81640625 4.51757812 C71.32256413 7.74725342 71.32256413 7.74725342 71.33106995 11.65332031 C71.33801547 12.37262096 71.344961 13.09192162 71.352117 13.83301926 C71.37041681 16.24381241 71.36011511 18.6536248 71.34985352 21.06445312 C71.35691048 22.79252866 71.36565455 24.52059802 71.3759613 26.24865723 C71.39848896 30.94285514 71.39550791 35.63671644 71.38663983 40.33094788 C71.38153514 44.24767224 71.3888182 48.16433305 71.39611191 52.08105087 C71.41312129 61.31906422 71.40953419 70.55691241 71.39282227 79.79492188 C71.3758939 89.33130395 71.39174293 98.86722853 71.42404515 108.40356064 C71.45071684 116.58711006 71.45802378 124.77051685 71.44953007 132.95410538 C71.44459449 137.84365237 71.44685063 142.73292395 71.46731758 147.62243652 C71.48563714 152.21907847 71.47976199 156.81506066 71.45511818 161.41166687 C71.45009866 163.09994678 71.45362958 164.78827664 71.46626663 166.47651672 C71.48214036 168.77905385 71.46730399 171.07940314 71.44459534 173.38183594 C71.44400903 174.67083801 71.44342272 175.95984009 71.44281864 177.28790283 C70.81640625 180.51757812 70.81640625 180.51757812 68.48345852 182.9318161 C65.04351376 184.97712051 62.71090204 185.02501607 58.71875 185.03515625 C58.02379425 185.04216553 57.3288385 185.0491748 56.61282349 185.05639648 C54.32610574 185.07393591 52.04063557 185.06236951 49.75390625 185.04882812 C48.15877038 185.05152424 46.56363612 185.05540766 44.96850586 185.0604248 C41.62956048 185.06631431 38.29104388 185.05777499 34.95214844 185.0390625 C30.67805348 185.01627275 26.40496327 185.02939885 22.13090515 185.05335236 C18.83826158 185.06782545 15.54585516 185.06319753 12.25320435 185.05284119 C10.67758057 185.05017805 9.10193507 185.05342914 7.52633667 185.0627594 C5.32166748 185.07295059 3.11861187 185.05739119 0.9140625 185.03515625 C-0.33882568 185.03197388 -1.59171387 185.0287915 -2.88256836 185.0255127 C-6.91080773 184.40568043 -8.36233395 183.43714313 -11.18359375 180.51757812 C-11.81000614 177.28790283 -11.81000614 177.28790283 -11.81178284 173.38183594 C-11.81887722 172.66253529 -11.82597161 171.94323463 -11.83328098 171.20213699 C-11.85088784 168.79111597 -11.83274441 166.38170144 -11.81469727 163.97070312 C-11.8198351 162.24262761 -11.82711536 160.51455734 -11.83638 158.78649902 C-11.85491963 154.09220538 -11.84193939 149.39847854 -11.82228971 144.70420837 C-11.80592298 139.79466067 -11.81471334 134.88514942 -11.81980896 129.97558594 C-11.82433213 121.73037648 -11.80844623 113.48539371 -11.78051758 105.24023438 C-11.74846467 95.70389483 -11.74848068 86.16796419 -11.76573235 76.63159561 C-11.78158898 67.46280025 -11.77486944 58.29415499 -11.75779533 49.12536621 C-11.7509177 45.22111014 -11.75196459 41.31697413 -11.75934029 37.41271973 C-11.76699414 32.81612775 -11.7549066 28.22000184 -11.72749138 23.62348938 C-11.72059698 21.93522017 -11.72052087 20.24690752 -11.72770691 18.55863953 C-11.73637826 16.25634407 -11.72048712 13.95549467 -11.69825745 11.65332031 C-11.69545053 10.36431824 -11.6926436 9.07531616 -11.68975163 7.74725342 C-10.58945641 0.72652641 -6.41722879 0.01578629 0 0 Z M25.06640625 46.08007812 C22.51167314 48.40873452 22.51167314 48.40873452 22.19140625 52.01757812 C22.52876624 55.60441706 22.52876624 55.60441706 24.94140625 58.01757812 C27.73790619 59.76935321 27.73790619 59.76935321 30.94140625 59.45507812 C34.56525792 58.33668095 34.56525792 58.33668095 36.81640625 55.51757812 C37.48317503 52.06007864 37.48317503 52.06007864 36.81640625 48.51757812 C34.68954696 45.96584953 34.68954696 45.96584953 31.81640625 44.51757812 C27.86889475 44.18823852 27.86889475 44.18823852 25.06640625 46.08007812 Z " fill="#8DF8AA" transform="translate(43.18359375,263.482421875)"/>
</svg>
