<svg width="23" height="20" viewBox="0 0 23 20" fill="none" xmlns="http://www.w3.org/2000/svg">
    <g clip-path="url(#clip0_341_1880)">
        <path d="M18.9995 14.2345C17.2216 14.322 17.3586 17.1422 19.1746 17.0137C20.8983 16.8918 20.7813 14.1469 18.9995 14.2345Z" fill="#00ADD9"/>
        <path d="M0.158203 7.76367V15.2917C0.223879 17.4571 1.81915 19.1761 4.00646 19.278H18.697C20.9252 19.179 22.5329 17.4305 22.5691 15.2232C22.4958 12.8864 22.6633 10.4926 22.5691 8.16249C22.5634 8.03209 22.5272 7.89978 22.5453 7.76367H0.158203ZM20.3627 17.2668C18.9359 18.4584 16.8847 17.2582 17.017 15.4516C17.0856 14.5122 17.8642 13.625 18.8169 13.528C20.9091 13.3147 21.9389 15.9504 20.3627 17.2668Z" fill="#00ADD9"/>
        <path d="M18.3059 2.37271C17.7415 1.07068 16.5232 0.168386 15.0869 0.109375L3.31055 3.85654H18.638C18.6066 3.33972 18.5124 2.84765 18.3059 2.37271Z" fill="#00ADD9"/>
        <path d="M18.9473 4.63281H0.739772C0.507525 4.63662 0.158203 4.87648 0.158203 5.12396V7.05427H22.3854C21.9037 5.59987 20.4274 4.73942 18.9473 4.63281Z" fill="#00ADD9"/>
    </g>
    <defs>
        <clipPath id="clip0_341_1880">
            <rect width="22.4413" height="19.168" fill="white" transform="translate(0.157227 0.109375)"/>
        </clipPath>
    </defs>
</svg>
